<?xml version="1.0" encoding="UTF-8"?>
<svg version="1.1" xmlns="http://www.w3.org/2000/svg" width="137" height="146">
<path d="M0 0 C13.9826716 10.70015418 23.28726866 24.9881506 25.796875 42.53515625 C27.33449286 61.64231938 22.26322641 77.34380628 10.3125 92.1484375 C9.71824219 92.84582031 9.12398438 93.54320313 8.51171875 94.26171875 C8.11597656 94.88433594 7.72023438 95.50695312 7.3125 96.1484375 C7.6425 97.1384375 7.9725 98.1284375 8.3125 99.1484375 C9.9521875 99.6125 9.9521875 99.6125 11.625 100.0859375 C17.14195736 101.67556928 17.14195736 101.67556928 19.3125 105.1484375 C19.63479844 108.50879501 19.54362587 111.78427209 19.3125 115.1484375 C17.9925 115.1484375 16.6725 115.1484375 15.3125 115.1484375 C15.3125 115.8084375 15.3125 116.4684375 15.3125 117.1484375 C13.9925 117.1484375 12.6725 117.1484375 11.3125 117.1484375 C11.3125 117.8084375 11.3125 118.4684375 11.3125 119.1484375 C-11.31451029 126.98232678 -39.65920193 128.56671996 -62.25 120.2734375 C-62.91708984 120.02899902 -63.58417969 119.78456055 -64.27148438 119.53271484 C-68.30666473 117.95332965 -71.62569538 116.23918168 -74.6875 113.1484375 C-75.28125 110.9296875 -75.28125 110.9296875 -75.1875 108.6484375 C-75.1771875 107.895625 -75.166875 107.1428125 -75.15625 106.3671875 C-74.58970451 103.68553886 -73.45135919 102.21252804 -71.6875 100.1484375 C-72.32816406 99.61476563 -72.96882813 99.08109375 -73.62890625 98.53125 C-86.4995775 87.44444228 -95.43719744 73.3405196 -96.85595703 56.1015625 C-97.84628458 37.93588893 -93.13020737 22.62582354 -81.09375 8.68359375 C-59.85568001 -13.69222999 -25.46962846 -17.54738938 0 0 Z " fill="#0F5FBD" transform="translate(102.6875,19.8515625)"/>
<path d="M0 0 C0 0.66 0 1.32 0 2 C-0.77923828 2.36351562 -0.77923828 2.36351562 -1.57421875 2.734375 C-8.12675152 5.88346653 -12.60150022 8.77144441 -16.0390625 15.2890625 C-17 17 -17 17 -18.9375 19.3125 C-26.09978528 28.64517476 -30.13292181 40.24361466 -29 52 C-28.4710819 55.04240927 -27.80629158 58.01960075 -27 61 C-26.67 58.69 -26.34 56.38 -26 54 C-25.01 54.66 -24.02 55.32 -23 56 C-22.50628906 55.4225 -22.01257812 54.845 -21.50390625 54.25 C-20.86324219 53.5075 -20.22257812 52.765 -19.5625 52 C-18.92441406 51.2575 -18.28632813 50.515 -17.62890625 49.75 C-17.09136719 49.1725 -16.55382812 48.595 -16 48 C-15.67 48 -15.34 48 -15 48 C-15 57.24 -15 66.48 -15 76 C-11.04 76.103125 -7.08 76.20625 -3 76.3125 C-1.76765625 76.35802002 -0.5353125 76.40354004 0.734375 76.45043945 C7.70179589 76.53787066 12.73625626 75.83772796 18 71 C19.8483698 67.3032604 19.47016254 63.03556179 19 59 C16.64368827 55.5091678 13.94237425 54.31412475 10 53 C10 52.34 10 51.68 10 51 C10.78375 50.4225 11.5675 49.845 12.375 49.25 C15.39807984 46.65878871 16.04921098 44.80315606 17 41 C20.21064123 43.3350118 20.65462246 46.09876329 21.46875 49.84375 C22.01925991 52.30137874 22.01925991 52.30137874 23.5 55.6875 C25.3151152 60.30779324 25.9017038 65.05195327 26.5703125 69.94921875 C26.95232706 72.66152211 27.43340353 75.32109212 28 78 C35.48504687 76.87116446 35.48504687 76.87116446 41 72 C42.04349839 70.36021682 43.05607981 68.69905634 44 67 C46.7558573 71.13378595 47.10756445 73.05203546 47 78 C53.93683311 77.33934923 59.60202634 76.7188933 64.66796875 71.640625 C70.38786017 64.59559744 70.18652275 56.26631317 70.5625 47.625 C70.62727539 46.23474609 70.62727539 46.23474609 70.69335938 44.81640625 C70.79876186 42.54439706 70.90088606 40.27229075 71 38 C73 40 73 40 73 43 C73.66 42.67 74.32 42.34 75 42 C75.46523063 40.10466658 75.46523063 40.10466658 75.625 37.9375 C75.810625 35.9884375 75.810625 35.9884375 76 34 C80.35484066 40.53226099 78.74184414 51.39468178 78 59 C76.50642695 64.62962151 74.90506166 68.72995889 70 72 C70.4021875 73.3303125 70.4021875 73.3303125 70.8125 74.6875 C71 78 71 78 68.8125 80.8125 C66.33482151 82.73958327 65.05156911 83.66093677 62 84 C62 83.34 62 82.68 62 82 C59.34432595 83.67779034 56.69281014 85.3615632 54.046875 87.0546875 C52.12738665 88.28020699 50.20115286 89.49528523 48.265625 90.6953125 C47.45609375 91.20835938 46.6465625 91.72140625 45.8125 92.25 C44.70841797 92.93835938 44.70841797 92.93835938 43.58203125 93.640625 C43.05996094 94.08921875 42.53789063 94.5378125 42 95 C42 95.99 42 96.98 42 98 C39.58490559 98.67286212 37.16819644 99.33846012 34.75 100 C34.06808594 100.19078125 33.38617188 100.3815625 32.68359375 100.578125 C29.29399088 101.49957044 26.54221024 102 23 102 C23 102.66 23 103.32 23 104 C11.5 105.035 11.5 105.035 6.75 101.1875 C6.12867188 100.63578125 5.50734375 100.0840625 4.8671875 99.515625 C2.89063855 97.91122962 1.28213078 97.21868206 -1.125 96.4375 C-5.28485566 95.05636215 -7.86321746 93.05836297 -11 90 C-11 89.34 -11 88.68 -11 88 C-10.236875 88.309375 -9.47375 88.61875 -8.6875 88.9375 C-6.81210323 89.67893593 -4.91315348 90.36228217 -3 91 C-3 90.34 -3 89.68 -3 89 C-3.66 89 -4.32 89 -5 89 C-6.36639342 87.3603279 -7.6949419 85.68889872 -9 84 C-11.85069182 80.79297171 -12.67583662 80.08104085 -17 79 C-15.35 81.31 -13.7 83.62 -12 86 C-12.33 86.66 -12.66 87.32 -13 88 C-13.763125 87.195625 -14.52625 86.39125 -15.3125 85.5625 C-17.79430898 82.83200976 -17.79430898 82.83200976 -21 82 C-22.16796875 80.4765625 -22.16796875 80.4765625 -23.1875 78.625 C-23.53167969 78.01914063 -23.87585937 77.41328125 -24.23046875 76.7890625 C-25 75 -25 75 -25 72 C-25.99 72 -26.98 72 -28 72 C-25.22631892 83.32586441 -17.8947918 91.82842337 -11 101 C-21.09724902 96.59920784 -26.86428625 84.67782313 -31 75 C-36.62205872 59.31840479 -35.28838933 41.91651021 -28.375 26.9375 C-23.56436774 17.87313134 -11.83574938 0 0 0 Z " fill="#023B9F" transform="translate(40,16)"/>
<path d="M0 0 C1.4150989 1.03670249 2.81158778 2.09932607 4.1875 3.1875 C5.23550781 3.991875 5.23550781 3.991875 6.3046875 4.8125 C11.19558334 8.79904152 15.50903369 13.40470244 18.1875 19.1875 C17.6925 20.6725 17.6925 20.6725 17.1875 22.1875 C16.919375 21.548125 16.65125 20.90875 16.375 20.25 C15.30082248 17.85618314 15.30082248 17.85618314 12.1875 17.1875 C10.46875 15.4453125 10.46875 15.4453125 8.6875 13.3125 C6.18484679 10.33365469 6.18484679 10.33365469 3.46875 7.5546875 C2.1875 6.1875 2.1875 6.1875 2.1875 4.1875 C0.9809375 4.06375 0.9809375 4.06375 -0.25 3.9375 C-3.34723299 3.28545095 -5.29254986 2.51735504 -8.0625 1.125 C-12.9380793 -1.10689525 -17.51542501 -2.0512575 -22.8125 -0.8125 C-25.69044893 1.2290656 -27.51106226 3.70021755 -28.2265625 7.23046875 C-28.98539057 9.7649545 -29.93678851 10.30478371 -32.125 11.75 C-36.14015696 14.58035654 -39.71688072 17.72900025 -43.3125 21.0625 C-43.85302002 21.56338135 -44.39354004 22.0642627 -44.95043945 22.58032227 C-46.24043537 23.77987949 -47.5268558 24.98327993 -48.8125 26.1875 C-46.97366119 28.47478734 -46.97366119 28.47478734 -44.1875 28.3125 C-43.011875 28.250625 -43.011875 28.250625 -41.8125 28.1875 C-42.1425 29.5075 -42.4725 30.8275 -42.8125 32.1875 C-41.8225 32.6825 -41.8225 32.6825 -40.8125 33.1875 C-39.90628085 40.89036278 -39.90628085 40.89036278 -42.0078125 43.8984375 C-45.11446782 46.59919816 -46.64908951 47.1875 -50.8125 47.1875 C-50.4825 46.465625 -50.1525 45.74375 -49.8125 45 C-48.79166828 42.12891078 -48.48653105 40.20271279 -48.8125 37.1875 C-51.30755962 34.69244038 -52.48578888 34.82801624 -55.9375 34.5625 C-58.350625 34.376875 -58.350625 34.376875 -60.8125 34.1875 C-60.8125 39.1375 -60.8125 44.0875 -60.8125 49.1875 C-59.4925 49.5175 -58.1725 49.8475 -56.8125 50.1875 C-59.2875 50.6825 -59.2875 50.6825 -61.8125 51.1875 C-61.8125 56.7975 -61.8125 62.4075 -61.8125 68.1875 C-55.3775 67.6925 -55.3775 67.6925 -48.8125 67.1875 C-49.4725 68.8375 -50.1325 70.4875 -50.8125 72.1875 C-57.4125 72.1875 -64.0125 72.1875 -70.8125 72.1875 C-71.1425 63.2775 -71.4725 54.3675 -71.8125 45.1875 C-73.7925 47.8275 -75.7725 50.4675 -77.8125 53.1875 C-80.8125 51.1875 -80.8125 51.1875 -81.8125 48.1875 C-83.41468279 36.53734225 -78.24605011 25.24377554 -71.82421875 15.78515625 C-66.00459425 8.27049549 -59.18824664 1.74572947 -50.8125 -2.8125 C-50.07515625 -3.225 -49.3378125 -3.6375 -48.578125 -4.0625 C-34.05023622 -10.72497129 -13.2954131 -8.37700859 0 0 Z " fill="#43A8F1" transform="translate(95.8125,19.8125)"/>
<path d="M0 0 C5.50171658 5.50171658 4.91409352 16.72137791 5 24 C4.13805258 40.01306759 -2.56489334 53.10110043 -12.80078125 65.11328125 C-13.19652344 65.73589844 -13.59226562 66.35851562 -14 67 C-13.67 67.99 -13.34 68.98 -13 70 C-11.3603125 70.4640625 -11.3603125 70.4640625 -9.6875 70.9375 C-4.17054264 72.52713178 -4.17054264 72.52713178 -2 76 C-1.67770156 79.36035751 -1.76887413 82.63583459 -2 86 C-3.32 86 -4.64 86 -6 86 C-6 86.66 -6 87.32 -6 88 C-7.32 88 -8.64 88 -10 88 C-10 88.66 -10 89.32 -10 90 C-32.62701029 97.83388928 -60.97170193 99.41828246 -83.5625 91.125 C-84.22958984 90.88056152 -84.89667969 90.63612305 -85.58398438 90.38427734 C-89.61916473 88.80489215 -92.93819538 87.09074418 -96 84 C-96.81587578 80.95120103 -96.54544085 78.09651317 -96 75 C-94.5 72.4375 -94.5 72.4375 -93 71 C-93.66 70.01 -94.32 69.02 -95 68 C-92.40190599 69.29742837 -89.80703206 70.60097358 -87.21484375 71.91015625 C-85.78908963 72.62765809 -84.3633076 73.34510446 -82.9375 74.0625 C-82.21755859 74.42666016 -81.49761719 74.79082031 -80.75585938 75.16601562 C-80.06169922 75.51470703 -79.36753906 75.86339844 -78.65234375 76.22265625 C-78.02320068 76.53984619 -77.39405762 76.85703613 -76.74584961 77.18383789 C-72.67761279 79.08568598 -69.37391429 79.1158119 -64.92578125 79.09765625 C-64.2419487 79.0962413 -63.55811615 79.09482635 -62.8535614 79.09336853 C-60.67316278 79.08777876 -58.49286749 79.07522822 -56.3125 79.0625 C-54.83268378 79.05748367 -53.35286594 79.052921 -51.87304688 79.04882812 C-48.24866443 79.03781271 -44.6243423 79.02055512 -41 79 C-41 79.99 -41 80.98 -41 82 C-35.39 82 -29.78 82 -24 82 C-24.33 81.01 -24.66 80.02 -25 79 C-28.3 78.34 -31.6 77.68 -35 77 C-32.23779278 74.23779278 -30.80713462 73.32154967 -27.375 71.8125 C-14.83130616 65.67759297 -5.35548881 53.50721829 -0.734375 40.4140625 C2.80149041 26.8037869 3.33744427 13.79675624 0 0 Z " fill="#010A13" transform="translate(124,49)"/>
<path d="M0 0 C3.4375 0 3.4375 0 7 1 C10.32046485 5.88930833 10.43114833 10.18937179 10.3125 15.875 C10.31572266 16.63941406 10.31894531 17.40382813 10.32226562 18.19140625 C10.24315642 26.66328283 8.79386705 34.23190643 2.546875 40.4453125 C-2.96911936 45.32056004 -6.96676734 45.11722054 -14 45 C-14.48828125 42.98177083 -14.9765625 40.96354167 -15.46484375 38.9453125 C-15.94846992 36.9414343 -15.94846992 36.9414343 -17 35 C-17.31453125 35.55429688 -17.6290625 36.10859375 -17.953125 36.6796875 C-18.38109375 37.40414062 -18.8090625 38.12859375 -19.25 38.875 C-19.66765625 39.59429687 -20.0853125 40.31359375 -20.515625 41.0546875 C-22.20309667 43.26616353 -23.40125082 44.0550003 -26 45 C-28.33203812 45.0777346 -30.66839059 45.08967728 -33 45 C-35.35494092 40.05985726 -36.03063545 34.84653444 -36.9375 29.5 C-38.23236469 22.08318086 -39.64402309 14.76361052 -41.484375 7.4609375 C-42 5 -42 5 -42 1 C-38.7 1 -35.4 1 -32 1 C-31.00043097 5.52008763 -30.00358471 10.04076373 -29.00927734 14.56201172 C-28.67051103 16.10058893 -28.33099606 17.63900149 -27.99072266 19.17724609 C-27.50226941 21.38596616 -27.01649543 23.59526078 -26.53125 25.8046875 C-26.37813354 26.49432587 -26.22501709 27.18396423 -26.06726074 27.89450073 C-25 32.77225659 -25 32.77225659 -25 35 C-21.96217741 34.32665746 -21.96217741 34.32665746 -20.828125 32.2578125 C-18.29057757 25.33940488 -19.70978581 15.87064257 -22 9 C-22.66 8.67 -23.32 8.34 -24 8 C-24 5.69 -24 3.38 -24 1 C-20.37 1 -16.74 1 -13 1 C-11.99591695 5.17922866 -10.99924491 9.36013568 -10.00927734 13.54272461 C-9.67177094 14.96410226 -9.33227614 16.38500934 -8.99072266 17.80541992 C-8.49893771 19.85213423 -8.01442782 21.90045773 -7.53125 23.94921875 C-7.23798828 25.17987061 -6.94472656 26.41052246 -6.64257812 27.6784668 C-6.08331682 30.56932927 -5.86388887 33.07118015 -6 36 C-3.53044606 35.58377402 -3.53044606 35.58377402 -1 34 C2.78057924 27.22103033 2.9282476 19.6170906 2 12 C0.796777 9.14314366 0.796777 9.14314366 -1 7 C-1.99 6.67 -2.98 6.34 -4 6 C-2.84826645 3.53199953 -1.95216435 1.95216435 0 0 Z " fill="#E6EFF7" transform="translate(101,49)"/>
<path d="M0 0 C2.89762005 2.45883758 3.8976495 4.87625073 5.125 8.4375 C5.45757812 9.38496094 5.79015625 10.33242188 6.1328125 11.30859375 C10.60844772 25.19919133 8.61567214 41.46023524 2.3046875 54.50390625 C-5.43866082 67.7804569 -14.83211034 76.98938014 -29 83 C-26.03 83.66 -23.06 84.32 -20 85 C-19.67 86.32 -19.34 87.64 -19 89 C-24.53613706 90.42868053 -30.55211412 90.81596196 -36 89 C-36 88.01 -36 87.02 -36 86 C-36.91394531 86.15726562 -37.82789062 86.31453125 -38.76953125 86.4765625 C-52.07862179 88.35541427 -67.24323139 89.17762535 -79 82 C-79.94746094 81.48050781 -80.89492187 80.96101563 -81.87109375 80.42578125 C-90.5635294 75.36600527 -99.06315813 67.50865632 -103 58 C-102.67 57.01 -102.34 56.02 -102 55 C-101.38253906 55.90363281 -100.76507813 56.80726562 -100.12890625 57.73828125 C-94.20613335 66.39927468 -94.20613335 66.39927468 -84.890625 70.53125 C-82.16540744 71.20692378 -80.91616612 73.01996168 -79 75 C-75.36456099 76.27765265 -75.36456099 76.27765265 -72 77 C-72 77.66 -72 78.32 -72 79 C-65.49347698 81.61736323 -59.91832591 82.39871196 -52.9375 82.1875 C-51.6390918 82.16719727 -51.6390918 82.16719727 -50.31445312 82.14648438 C-48.20935826 82.1115933 -46.10459026 82.05780665 -44 82 C-44 81.01 -44 80.02 -44 79 C-42.38263741 77.6072711 -40.7074998 76.28062485 -39 75 C-38.38125 74.34 -37.7625 73.68 -37.125 73 C-32.79137465 68.92129378 -29.13327128 66.89868693 -23.25 66.5625 C-18.00375719 66.24917156 -14.02151297 64.46964095 -9.34765625 62.15625 C-7 61 -7 61 -4 60 C-2.65858505 57.38160488 -1.48830246 54.83749539 -0.375 52.125 C0.09292969 51.02478516 0.09292969 51.02478516 0.5703125 49.90234375 C6.49149493 35.89058016 5.31153142 19.43134352 1 5 C0.64950316 3.33685814 0.31068028 1.6710376 0 0 Z " fill="#1993E8" transform="translate(119,42)"/>
<path d="M0 0 C0.33 0 0.66 0 1 0 C4.46291158 16.97112865 2.75592759 32.44736383 -5.953125 47.33984375 C-8 50 -8 50 -9.9921875 50.75 C-10.65476562 50.8325 -11.31734375 50.915 -12 51 C-13.38459481 51.64650341 -14.75924114 52.31460072 -16.125 53 C-19.55011944 54.58039173 -22.30126939 55.24625099 -26.0625 55.4375 C-30.77784621 55.7170369 -33.6138248 57.19811507 -37.40625 59.94140625 C-39 61 -39 61 -41 61 C-41.37125 61.928125 -41.37125 61.928125 -41.75 62.875 C-43.20628639 65.35068687 -44.37812506 65.95125002 -47 67 C-47 67.99 -47 68.98 -47 70 C-53.71489988 72.10796857 -63.76799981 72.40492063 -70.3125 69.5625 C-71.199375 69.046875 -72.08625 68.53125 -73 68 C-73.99 67.505 -73.99 67.505 -75 67 C-75 66.34 -75 65.68 -75 65 C-76.0725 64.896875 -77.145 64.79375 -78.25 64.6875 C-81.84739269 64.02797801 -83.45776191 63.54223809 -86 61 C-86 60.34 -86 59.68 -86 59 C-87.155 59.020625 -88.31 59.04125 -89.5 59.0625 C-94.73165751 58.43990488 -97.01344125 55.32046453 -100.23828125 51.421875 C-102 49 -102 49 -103.54296875 46.203125 C-104.02378906 45.47609375 -104.50460938 44.7490625 -105 44 C-105.99 44 -106.98 44 -108 44 C-110.09350689 40.5980513 -110.17942163 37.94727588 -110 34 C-109.01 34 -108.02 34 -107 34 C-106.32845067 35.28913487 -105.66291141 36.58140204 -105 37.875 C-104.62875 38.59429687 -104.2575 39.31359375 -103.875 40.0546875 C-103 42 -103 42 -103 44 C-101.68 44.33 -100.36 44.66 -99 45 C-99 45.66 -99 46.32 -99 47 C-97.68 47.33 -96.36 47.66 -95 48 C-95.66 47.21625 -96.32 46.4325 -97 45.625 C-99 43 -99 43 -99 41 C-97.35 41.33 -95.7 41.66 -94 42 C-93.67 42.99 -93.34 43.98 -93 45 C-92.360625 45.309375 -91.72125 45.61875 -91.0625 45.9375 C-88.54531085 47.2342338 -88.03113052 48.4221737 -87 51 C-86.34 51 -85.68 51 -85 51 C-84.67 51.99 -84.34 52.98 -84 54 C-87.40312738 52.94124926 -90.01353231 51.99097846 -93 50 C-93 50.66 -93 51.32 -93 52 C-91.515 52.495 -91.515 52.495 -90 53 C-90 53.66 -90 54.32 -90 55 C-87.45697774 56.37747039 -84.91497544 57.38039189 -82.1875 58.3125 C-79.20692263 59.37894511 -77.15585472 60.58384698 -74.75 62.625 C-70.14464632 66.19978502 -64.61809475 65.89852374 -59 66 C-59 65.34 -59 64.68 -59 64 C-56.58490559 63.32713788 -54.16819644 62.66153988 -51.75 62 C-51.06808594 61.80921875 -50.38617188 61.6184375 -49.68359375 61.421875 C-46.29399088 60.50042956 -43.54221024 60 -40 60 C-40.33 59.01 -40.66 58.02 -41 57 C-36.0229399 53.48800352 -31.03415875 49.99227645 -26 46.5625 C-24.9171875 45.82193359 -24.9171875 45.82193359 -23.8125 45.06640625 C-22 44 -22 44 -20 44 C-20 44.66 -20 45.32 -20 46 C-16.62528989 44.55369567 -14.21807236 42.95742982 -12 40 C-12.14349347 36.80045046 -12.14349347 36.80045046 -13 34 C-8.25 32.875 -8.25 32.875 -6 34 C-5.01 31.69 -4.02 29.38 -3 27 C-2.505 27.99 -2.505 27.99 -2 29 C-1.34 29 -0.68 29 0 29 C0 19.43 0 9.86 0 0 Z " fill="#0055C3" transform="translate(122,54)"/>
<path d="M0 0 C0 0.66 0 1.32 0 2 C-0.77923828 2.36351562 -0.77923828 2.36351562 -1.57421875 2.734375 C-8.12675152 5.88346653 -12.60150022 8.77144441 -16.0390625 15.2890625 C-17 17 -17 17 -18.9375 19.3125 C-26.09978528 28.64517476 -30.13292181 40.24361466 -29 52 C-28.4710819 55.04240927 -27.80629158 58.01960075 -27 61 C-26.67 58.69 -26.34 56.38 -26 54 C-25.01 54.66 -24.02 55.32 -23 56 C-22.50628906 55.4225 -22.01257812 54.845 -21.50390625 54.25 C-20.86324219 53.5075 -20.22257812 52.765 -19.5625 52 C-18.92441406 51.2575 -18.28632813 50.515 -17.62890625 49.75 C-17.09136719 49.1725 -16.55382812 48.595 -16 48 C-15.67 48 -15.34 48 -15 48 C-15 57.24 -15 66.48 -15 76 C-13.35 76 -11.7 76 -10 76 C-10.99 76.99 -10.99 76.99 -12 78 C-7.2081036 82.42093655 -7.2081036 82.42093655 -1 84 C-1 86.31 -1 88.62 -1 91 C0.32 91.33 1.64 91.66 3 92 C3 92.66 3 93.32 3 94 C3.99 94.495 3.99 94.495 5 95 C-0.75 94.25 -0.75 94.25 -3 92 C-3 91.01 -3 90.02 -3 89 C-3.66 89 -4.32 89 -5 89 C-6.36639342 87.3603279 -7.6949419 85.68889872 -9 84 C-11.85069182 80.79297171 -12.67583662 80.08104085 -17 79 C-15.35 81.31 -13.7 83.62 -12 86 C-12.33 86.66 -12.66 87.32 -13 88 C-13.763125 87.195625 -14.52625 86.39125 -15.3125 85.5625 C-17.79430898 82.83200976 -17.79430898 82.83200976 -21 82 C-22.16796875 80.4765625 -22.16796875 80.4765625 -23.1875 78.625 C-23.53167969 78.01914063 -23.87585937 77.41328125 -24.23046875 76.7890625 C-25 75 -25 75 -25 72 C-25.99 72 -26.98 72 -28 72 C-25.22631892 83.32586441 -17.8947918 91.82842337 -11 101 C-21.09724902 96.59920784 -26.86428625 84.67782313 -31 75 C-36.62205872 59.31840479 -35.28838933 41.91651021 -28.375 26.9375 C-23.56436774 17.87313134 -11.83574938 0 0 0 Z " fill="#0851B2" transform="translate(40,16)"/>
<path d="M0 0 C1.60332791 -0.08121924 3.20784026 -0.13929134 4.8125 -0.1875 C6.15248047 -0.23970703 6.15248047 -0.23970703 7.51953125 -0.29296875 C10 0 10 0 11.8359375 1.29296875 C13 3 13 3 12.8125 6.5 C12 10 12 10 10 13 C14.89562693 11.12297673 14.89562693 11.12297673 19 8 C19.40047444 5.67724823 19.7397104 3.34260643 20 1 C20.33 1 20.66 1 21 1 C21.48979592 8.34693878 21.48979592 8.34693878 19.125 11.5 C17 13 17 13 15 13 C15 13.66 15 14.32 15 15 C15.9075 15.2475 16.815 15.495 17.75 15.75 C21.34192535 17.13150975 22.90144747 17.77145764 25 21 C25.79346488 25.78507902 25.74234068 29.65807646 23.375 33.9375 C17.38725049 39.13738773 12.21186303 39.39854683 4.625 39.1875 C3.69816406 39.17396484 2.77132812 39.16042969 1.81640625 39.14648438 C-0.45633998 39.11133881 -2.72785847 39.06214132 -5 39 C-5 38.67 -5 38.34 -5 38 C-0.05 38 4.9 38 10 38 C10.33 36.68 10.66 35.36 11 34 C7.04 34 3.08 34 -1 34 C-1 28.39 -1 22.78 -1 17 C-0.34 16.67 0.32 16.34 1 16 C0.67 15.67 0.34 15.34 0 15 C-0.07313567 12.46950598 -0.09247527 9.96695163 -0.0625 7.4375 C-0.05798828 6.72658203 -0.05347656 6.01566406 -0.04882812 5.28320312 C-0.03700864 3.52209987 -0.01907263 1.76103964 0 0 Z " fill="#DCE9F5" transform="translate(35,54)"/>
<path d="M0 0 C5.50171658 5.50171658 4.91409352 16.72137791 5 24 C4.13805258 40.01306759 -2.56489334 53.10110043 -12.80078125 65.11328125 C-13.19652344 65.73589844 -13.59226562 66.35851562 -14 67 C-13.67 67.99 -13.34 68.98 -13 70 C-11.3603125 70.4640625 -11.3603125 70.4640625 -9.6875 70.9375 C-4.17054264 72.52713178 -4.17054264 72.52713178 -2 76 C-1.67770156 79.36035751 -1.76887413 82.63583459 -2 86 C-3.32 86 -4.64 86 -6 86 C-6 86.66 -6 87.32 -6 88 C-7.32 88 -8.64 88 -10 88 C-10 88.66 -10 89.32 -10 90 C-32.62701029 97.83388928 -60.97170193 99.41828246 -83.5625 91.125 C-84.22958984 90.88056152 -84.89667969 90.63612305 -85.58398438 90.38427734 C-89.61916473 88.80489215 -92.93819538 87.09074418 -96 84 C-96.81587578 80.95120103 -96.54544085 78.09651317 -96 75 C-94.5 72.4375 -94.5 72.4375 -93 71 C-93.66 70.01 -94.32 69.02 -95 68 C-93 69 -91 70 -89 71 C-89.144375 71.53625 -89.28875 72.0725 -89.4375 72.625 C-90.89280947 78.32817129 -90.89280947 78.32817129 -90 84 C-85.41307131 87.39339112 -80.47955098 88.48295421 -74.8828125 88.82421875 C-73 89 -73 89 -71 90 C-71 90.66 -71 91.32 -71 92 C-39.84268844 94.06540501 -39.84268844 94.06540501 -11 85 C-8.80141028 82.33179014 -8.80141028 82.33179014 -9.0625 80.0625 C-11.26631995 75.21409611 -16.39445605 73.14211347 -21 71 C-18.69017539 67.246535 -16.20530017 64.09203358 -13.1875 60.875 C-1.31506447 47.58760008 2.87547188 32.41824432 2.2734375 14.953125 C1.9213867 9.86347628 1.19917575 4.95730691 0 0 Z " fill="#000001" transform="translate(124,49)"/>
<path d="M0 0 C0.75982178 -0.00128906 1.51964355 -0.00257812 2.30249023 -0.00390625 C8.05464507 0.10489324 11.92551374 1.0902434 16.75 4.375 C17.65621915 12.07786278 17.65621915 12.07786278 15.5546875 15.0859375 C12.44803218 17.78669816 10.91341049 18.375 6.75 18.375 C7.08 17.653125 7.41 16.93125 7.75 16.1875 C8.77083172 13.31641078 9.07596895 11.39021279 8.75 8.375 C6.25494038 5.87994038 5.07671112 6.01551624 1.625 5.75 C0.01625 5.62625 -1.5925 5.5025 -3.25 5.375 C-3.25 10.325 -3.25 15.275 -3.25 20.375 C-1.93 20.705 -0.61 21.035 0.75 21.375 C-0.9 21.705 -2.55 22.035 -4.25 22.375 C-4.25 27.985 -4.25 33.595 -4.25 39.375 C2.185 38.88 2.185 38.88 8.75 38.375 C7.76 40.85 7.76 40.85 6.75 43.375 C0.48 43.375 -5.79 43.375 -12.25 43.375 C-12.25 29.845 -12.25 16.315 -12.25 2.375 C-7.92742719 0.2137136 -4.69685439 -0.00812692 0 0 Z " fill="#EBF2F9" transform="translate(38.25,48.625)"/>
<path d="M0 0 C0 0.33 0 0.66 0 1 C-1.33804688 1.18175781 -1.33804688 1.18175781 -2.703125 1.3671875 C-3.87359375 1.53476563 -5.0440625 1.70234375 -6.25 1.875 C-7.41015625 2.03742187 -8.5703125 2.19984375 -9.765625 2.3671875 C-12.58193313 2.91820431 -14.55217557 3.55796482 -17 5 C-16.87625 5.721875 -16.7525 6.44375 -16.625 7.1875 C-17 10 -17 10 -19.8125 12.5 C-20.33457031 12.8609375 -20.85664062 13.221875 -21.39453125 13.59375 C-23.18866119 14.99325081 -23.18866119 14.99325081 -24.296875 17.49609375 C-26.5689413 20.83644811 -28.63767926 21.32464693 -32.4375 22.5625 C-37.07412173 24.08694105 -39.68585048 25.43600329 -43 29 C-45.75 29.75 -45.75 29.75 -48 30 C-46.125 25.25 -46.125 25.25 -45 23 C-48.37898381 24.44813592 -50.49631932 26.32940727 -53 29 C-53.66 29.66 -54.32 30.32 -55 31 C-53.73919566 21.78642985 -44.99217858 13.94818686 -37.9453125 8.375 C-25.73689688 -0.31426379 -14.48531536 -0.51074569 0 0 Z " fill="#D8F2FC" transform="translate(76,13)"/>
<path d="M0 0 C2.89762005 2.45883758 3.8976495 4.87625073 5.125 8.4375 C5.45757812 9.38496094 5.79015625 10.33242188 6.1328125 11.30859375 C10.60844772 25.19919133 8.61567214 41.46023524 2.3046875 54.50390625 C-4.59917238 66.34109111 -13.26489614 76.42177282 -26.125 81.75 C-27.13820313 82.17796875 -28.15140625 82.6059375 -29.1953125 83.046875 C-32 84 -32 84 -36 84 C-34.9030668 78.21617041 -33.63115763 73.9676546 -29 70 C-25.78139431 68.25205337 -22.43922258 66.99609514 -19 65.75 C-17.66582031 65.24339844 -17.66582031 65.24339844 -16.3046875 64.7265625 C-15.44101563 64.39914063 -14.57734375 64.07171875 -13.6875 63.734375 C-12.45241699 63.26559937 -12.45241699 63.26559937 -11.19238281 62.78735352 C-9 62 -9 62 -6.109375 61.26171875 C-2.61950393 59.17425883 -1.69229134 55.73937277 -0.25 52.0625 C0.05292969 51.33353516 0.35585937 50.60457031 0.66796875 49.85351562 C6.45071742 35.83356273 5.30111286 19.39647101 1 5 C0.64950316 3.33685814 0.31068028 1.6710376 0 0 Z " fill="#34C0F8" transform="translate(119,42)"/>
<path d="M0 0 C0.66 0.33 1.32 0.66 2 1 C1.34 1.99 0.68 2.98 0 4 C0 4.99 0 5.98 0 7 C0.825 7.45375 1.65 7.9075 2.5 8.375 C3.7375 9.179375 3.7375 9.179375 5 10 C5.3125 12.6875 5.3125 12.6875 5 15 C4.01 15 3.02 15 2 15 C1.67 16.32 1.34 17.64 1 19 C-15.11081648 22.33138917 -31.31454734 20.18254713 -46.859375 15.54321289 C-49.06049096 14.98464959 -51.18001451 14.69789899 -53.4375 14.46875 C-57 14 -57 14 -59 11.9375 C-59.33 11.298125 -59.66 10.65875 -60 10 C-59.67 9.34 -59.34 8.68 -59 8 C-58.01 8.49113281 -57.02 8.98226562 -56 9.48828125 C-49.29050726 12.00434103 -42.05327685 11.31473747 -35 11.1875 C-33.54298257 11.17242741 -32.08595007 11.15874355 -30.62890625 11.14648438 C-27.08562075 11.11367903 -23.54290829 11.06203907 -20 11 C-20 11.99 -20 12.98 -20 14 C-14.39 14 -8.78 14 -3 14 C-3.495 12.515 -3.495 12.515 -4 11 C-8.95 10.01 -8.95 10.01 -14 9 C-11.20987664 6.20987664 -9.35643022 5.0294406 -5.875 3.375 C-2.7170292 2.01068523 -2.7170292 2.01068523 0 0 Z " fill="#012A61" transform="translate(103,117)"/>
<path d="M0 0 C0.495 0.99 0.495 0.99 1 2 C-5.6 1.34 -12.2 0.68 -19 0 C-19 0.66 -19 1.32 -19 2 C-20.5 3.625 -20.5 3.625 -22 5 C-21.34 5 -20.68 5 -20 5 C-20.41170944 9.80327682 -22.47927615 12.01175583 -26 15 C-26.80824219 15.6909375 -27.61648437 16.381875 -28.44921875 17.09375 C-35.57207306 23 -35.57207306 23 -39 23 C-39 23.66 -39 24.32 -39 25 C-43.79482068 27.75702189 -47.58609132 28.53328373 -53 29 C-53 29.66 -53 30.32 -53 31 C-55 32 -55 32 -57.875 31.75 C-61.18621393 31.66970305 -61.18621393 31.66970305 -63.3125 34.375 C-64.96893103 36.84829386 -64.96893103 36.84829386 -66 39 C-66.66 39 -67.32 39 -68 39 C-68.04898438 39.90363281 -68.09796875 40.80726562 -68.1484375 41.73828125 C-68.22320312 42.91777344 -68.29796875 44.09726562 -68.375 45.3125 C-68.44460937 46.48425781 -68.51421875 47.65601563 -68.5859375 48.86328125 C-69 52 -69 52 -71 55 C-73.45220923 50.09558155 -72.38847023 44.37414095 -70.953125 39.296875 C-68.75361376 32.80972999 -66.75727429 28.4982765 -61.625 23.9375 C-61.03976563 23.41027344 -60.45453125 22.88304688 -59.8515625 22.33984375 C-58 21 -58 21 -54 20 C-55.32 22.64 -56.64 25.28 -58 28 C-57.21625 27.67 -56.4325 27.34 -55.625 27 C-53 26 -53 26 -51 26 C-50.80277344 25.39027344 -50.60554688 24.78054687 -50.40234375 24.15234375 C-47.89275119 20.30057355 -43.27853765 19.79211207 -39.06640625 18.44140625 C-35.51022374 16.76977396 -34.74824686 15.42591232 -33 12 C-32.113125 11.34 -31.22625 10.68 -30.3125 10 C-29.549375 9.34 -28.78625 8.68 -28 8 C-28 7.154375 -28 6.30875 -28 5.4375 C-28 4.633125 -28 3.82875 -28 3 C-20.38267379 -2.66019433 -8.75873558 -3.36874446 0 0 Z " fill="#89D5FC" transform="translate(86,15)"/>
<path d="M0 0 C3.4375 0 3.4375 0 7 1 C10.32046485 5.88930833 10.43114833 10.18937179 10.3125 15.875 C10.31733398 17.02162109 10.31733398 17.02162109 10.32226562 18.19140625 C10.24315642 26.66328283 8.79386705 34.23190643 2.546875 40.4453125 C-2.96911936 45.32056004 -6.96676734 45.11722054 -14 45 C-13.67 44.34 -13.34 43.68 -13 43 C-10.8203125 42.40234375 -10.8203125 42.40234375 -8.125 41.9375 C-5.2891156 41.43729298 -2.73932151 40.91310717 0 40 C0.66179847 38.01954441 0.66179847 38.01954441 1 36 C1.495 35.505 1.495 35.505 2 35 C1.34 34.67 0.68 34.34 0 34 C0.33 32.96875 0.66 31.9375 1 30.875 C2.68483657 24.09929035 3.66145142 15.57138972 0.66796875 9.13671875 C-0.8957175 6.72741247 -0.8957175 6.72741247 -4 6 C-2.84826645 3.53199953 -1.95216435 1.95216435 0 0 Z " fill="#DCE9F5" transform="translate(101,49)"/>
<path d="M0 0 C4.37164316 6.55746473 2.69802244 17.36752518 2 25 C0.14056222 32.83620207 -3.71270749 37.28453061 -10 42 C-10.9075 42.928125 -11.815 43.85625 -12.75 44.8125 C-15.68182917 47.66288947 -18.04704403 48.16016009 -22 48.25 C-22.680625 48.27578125 -23.36125 48.3015625 -24.0625 48.328125 C-26.54329705 47.90799002 -27.40895598 46.88936477 -29 45 C-28.05898437 44.79246094 -27.11796875 44.58492187 -26.1484375 44.37109375 C-16.85514264 42.15098656 -16.85514264 42.15098656 -10.015625 35.78125 C-9.51289062 34.89953125 -9.51289062 34.89953125 -9 34 C-8.64421875 33.3915625 -8.2884375 32.783125 -7.921875 32.15625 C-5.45387428 26.38363814 -5.70653385 19.80836811 -5.4375 13.625 C-5.39431641 12.69816406 -5.35113281 11.77132812 -5.30664062 10.81640625 C-5.20123814 8.54439706 -5.09911394 6.27229075 -5 4 C-3 6 -3 6 -3 9 C-2.34 8.67 -1.68 8.34 -1 8 C-0.53476937 6.10466658 -0.53476937 6.10466658 -0.375 3.9375 C-0.25125 2.638125 -0.1275 1.33875 0 0 Z " fill="#05297A" transform="translate(116,50)"/>
<path d="M0 0 C-1.134375 0.515625 -2.26875 1.03125 -3.4375 1.5625 C-18.7330606 9.29106671 -28.82843372 22.51274568 -34.1875 38.5546875 C-34.96747923 41.86209942 -35.17595625 44.55650366 -35.0625 47.9375 C-34.97159236 52.75560509 -35.26789266 57.24130226 -36 62 C-38 61 -38 61 -38.6328125 59.28515625 C-41.42788595 46.66295948 -39.71393722 35.59600317 -33.47265625 24.21484375 C-30.89002651 20.27846915 -27.93921168 16.67401459 -25 13 C-24.73574219 12.37222656 -24.47148437 11.74445312 -24.19921875 11.09765625 C-22.61349808 8.32393638 -20.6851115 7.05232332 -18.0625 5.25 C-17.18722656 4.63640625 -16.31195313 4.0228125 -15.41015625 3.390625 C-13 2 -13 2 -10 2 C-10 1.34 -10 0.68 -10 0 C-6.26432828 -0.76411467 -3.65188082 -1.07174763 0 0 Z " fill="#409DE9" transform="translate(50,16)"/>
<path d="M0 0 C5.71061009 2.41114648 5.71061009 2.41114648 7.234375 5.51171875 C8.85428155 8.32970297 8.85428155 8.32970297 12.37109375 9.0390625 C13.72334217 9.25554969 15.0792991 9.44969218 16.4375 9.625 C17.90551933 9.84915375 19.37297306 10.07704237 20.83984375 10.30859375 C21.55769043 10.41929199 22.27553711 10.52999023 23.01513672 10.64404297 C25.58734605 11.10533217 28.01349448 11.89078064 30.5 12.6875 C41.52689451 15.60458705 55.85204263 15.37516618 67 13 C67.33 12.01 67.66 11.02 68 10 C68.99 10 69.98 10 71 10 C70.88658466 7.59122743 70.88658466 7.59122743 70 5 C67.53884453 3.15565651 67.53884453 3.15565651 65 2 C67.91044936 0.76865604 69.10516463 1.03299283 72.1875 2 C75 4 75 4 75.875 7.6875 C75.91625 8.780625 75.9575 9.87375 76 11 C69.95175359 14.47214146 66.35990984 16.16163733 59.30078125 16.203125 C58.52159836 16.21013931 57.74241547 16.21715363 56.93962097 16.22438049 C54.39718971 16.24200531 51.85499032 16.24824364 49.3125 16.25 C48.45285645 16.25067474 47.59321289 16.25134949 46.70751953 16.25204468 C36.25990653 16.23897294 25.88410426 16.08919829 15.5 14.8125 C14.60192627 14.71163086 13.70385254 14.61076172 12.77856445 14.50683594 C7.09969428 13.6829584 3.9829637 12.17864021 0 8 C-1.48148148 2.96296296 -1.48148148 2.96296296 0 0 Z " fill="#001C42" transform="translate(37,122)"/>
<path d="M0 0 C2.13118507 1.9072562 4.15710228 3.8851046 6.15625 5.9296875 C5.82625 6.5896875 5.49625 7.2496875 5.15625 7.9296875 C3.50625 6.6096875 1.85625 5.2896875 0.15625 3.9296875 C-0.17375 4.5896875 -0.50375 5.2496875 -0.84375 5.9296875 C-1.35421875 5.42179687 -1.8646875 4.91390625 -2.390625 4.390625 C-13.57507533 -6.19890776 -25.54386968 -10.44555223 -40.71875 -10.3203125 C-41.64816406 -10.32804688 -42.57757813 -10.33578125 -43.53515625 -10.34375 C-49.11477472 -10.32818621 -54.25537531 -9.77035352 -59.69335938 -8.51123047 C-62.43487537 -7.94910764 -65.05582079 -7.92357938 -67.84375 -8.0703125 C-48.69625421 -23.82848145 -16.8347817 -13.97286881 0 0 Z " fill="#1C62A4" transform="translate(107.84375,24.0703125)"/>
<path d="M0 0 C2 1 2 1 4 3 C6.58354218 3.16687448 6.58354218 3.16687448 9 3 C8.34 3.99 7.68 4.98 7 6 C6.35289063 5.83757813 5.70578125 5.67515625 5.0390625 5.5078125 C1.12614213 4.85398262 -2.66582033 4.85473116 -6.625 4.875 C-7.388125 4.87113281 -8.15125 4.86726563 -8.9375 4.86328125 C-12.21351362 4.86902864 -14.87137676 4.95712559 -18 6 C-18.33 19.53 -18.66 33.06 -19 47 C-19.33 47 -19.66 47 -20 47 C-20.33 38.09 -20.66 29.18 -21 20 C-22.98 22.64 -24.96 25.28 -27 28 C-27.99 27.01 -28.98 26.02 -30 25 C-29.72527461 22.13163063 -29.32265908 19.59892586 -28.6875 16.8125 C-28.53087891 16.06291016 -28.37425781 15.31332031 -28.21289062 14.54101562 C-27.82397308 12.69071096 -27.41397878 10.84485928 -27 9 C-26.34 9 -25.68 9 -25 9 C-24.731875 8.236875 -24.46375 7.47375 -24.1875 6.6875 C-23.05575888 4.12619116 -22.08776599 2.80307062 -20 1 C-20 1.66 -20 2.32 -20 3 C-17.04111327 2.69215623 -14.08296833 2.37894426 -11.125 2.0625 C-10.28324219 1.97548828 -9.44148438 1.88847656 -8.57421875 1.79882812 C-7.36572266 1.66831055 -7.36572266 1.66831055 -6.1328125 1.53515625 C-5.38918457 1.456604 -4.64555664 1.37805176 -3.87939453 1.29711914 C-1.91553684 1.08362653 -1.91553684 1.08362653 0 0 Z " fill="#3E95E4" transform="translate(45,45)"/>
<path d="M0 0 C0.33 0 0.66 0 1 0 C4.46291158 16.97112865 2.75592759 32.44736383 -5.953125 47.33984375 C-8 50 -8 50 -9.96875 50.7421875 C-10.6390625 50.82726562 -11.309375 50.91234375 -12 51 C-14.2862009 52.03845041 -16.53237079 53.14107454 -18.78125 54.2578125 C-21.31574627 55.10561935 -22.52133383 54.89006649 -25 54 C-18.40816327 49.21768707 -18.40816327 49.21768707 -15.1875 47.5 C-12.48588414 45.64746341 -12.04023308 44.04068132 -11 41 C-10.01 40.505 -10.01 40.505 -9 40 C-10.32 39.01 -11.64 38.02 -13 37 C-12.67 35.68 -12.34 34.36 -12 33 C-10.02 33.33 -8.04 33.66 -6 34 C-5.01 31.69 -4.02 29.38 -3 27 C-2.67 27.66 -2.34 28.32 -2 29 C-1.34 29 -0.68 29 0 29 C0 19.43 0 9.86 0 0 Z " fill="#1A7AD8" transform="translate(122,54)"/>
<path d="M0 0 C0.99 0 1.98 0 3 0 C3.67154933 1.28913487 4.33708859 2.58140204 5 3.875 C5.37125 4.59429687 5.7425 5.31359375 6.125 6.0546875 C7 8 7 8 7 10 C8.32 10.33 9.64 10.66 11 11 C11 11.66 11 12.32 11 13 C12.32 13.33 13.64 13.66 15 14 C14.34 13.21625 13.68 12.4325 13 11.625 C11 9 11 9 11 7 C12.65 7.33 14.3 7.66 16 8 C16.33 8.99 16.66 9.98 17 11 C17.639375 11.309375 18.27875 11.61875 18.9375 11.9375 C21.45468915 13.2342338 21.96886948 14.4221737 23 17 C23.66 17 24.32 17 25 17 C25.33 17.99 25.66 18.98 26 20 C22.59687262 18.94124926 19.98646769 17.99097846 17 16 C17 16.66 17 17.32 17 18 C17.99 18.33 18.98 18.66 20 19 C20 19.66 20 20.32 20 21 C20.8971875 21.433125 20.8971875 21.433125 21.8125 21.875 C24 23 24 23 27 25 C27 25.66 27 26.32 27 27 C27.598125 27.103125 28.19625 27.20625 28.8125 27.3125 C31.28243264 28.08876455 32.32251235 29.07088921 34 31 C29.8333396 30.52651586 27.07115285 29.95303159 24 27 C24 26.34 24 25.68 24 25 C22.845 25.020625 21.69 25.04125 20.5 25.0625 C15.26834249 24.43990488 12.98655875 21.32046453 9.76171875 17.421875 C8 15 8 15 6.45703125 12.203125 C5.73580078 11.11257812 5.73580078 11.11257812 5 10 C4.01 10 3.02 10 2 10 C-0.09350689 6.5980513 -0.17942163 3.94727588 0 0 Z " fill="#1B67C3" transform="translate(12,88)"/>
<path d="M0 0 C2.98206528 4.47309792 2.47661546 8.75722995 2 14 C0.66506578 17.76922604 -0.50175204 18.68588715 -3.875 20.8125 C-9.23819515 22.82226264 -15.38825579 22.74823256 -21 22 C-23.39453125 20.6015625 -23.39453125 20.6015625 -25 19 C-25 18.34 -25 17.68 -25 17 C-26.32 16.67 -27.64 16.34 -29 16 C-27.7934375 15.91363281 -26.586875 15.82726562 -25.34375 15.73828125 C-14.2307087 15.14964461 -14.2307087 15.14964461 -4.34765625 10.640625 C-1.78496405 7.5208258 -0.81503513 3.89688672 0 0 Z " fill="#012273" transform="translate(61,78)"/>
<path d="M0 0 C2.97656328 2.83168631 5.34792503 5.79981357 7.75 9.125 C11.63274463 14.07984576 13.92641922 14.98773654 20 16 C21.35368596 17.31266518 22.68799596 18.64567325 24 20 C27.63543901 21.27765265 27.63543901 21.27765265 31 22 C31 22.66 31 23.32 31 24 C33.475 24.99 33.475 24.99 36 26 C36 26.66 36 27.32 36 28 C40.95 28.99 40.95 28.99 46 30 C35.11174551 32.72206362 28.20844124 29.60063945 18.86816406 24.16308594 C10.52979991 18.97176775 4.35182233 11.79010471 0 3 C0 2.01 0 1.02 0 0 Z " fill="#59C3F0" transform="translate(16,97)"/>
<path d="M0 0 C9.76931447 -0.43743199 9.76931447 -0.43743199 14 3 C15.43735246 5.87470493 15.38172649 7.81894588 15 11 C12.399035 13.600965 10.48886679 14.8370444 7 16 C4.69 16 2.38 16 0 16 C0 10.72 0 5.44 0 0 Z " fill="#0744A2" transform="translate(35,72)"/>
<path d="M0 0 C0 0.66 0 1.32 0 2 C-1.134375 2.495 -2.26875 2.99 -3.4375 3.5 C-17.35218319 10.53109433 -25.11439153 23.9294243 -30.11328125 38.171875 C-33.62450404 53.33045795 -31.82046036 70.51401077 -23.6875 83.8125 C-20.78674143 88.04485679 -17.69358368 92.12514984 -14.48046875 96.125 C-13.24315381 97.69204795 -12.10753885 99.33869172 -11 101 C-21.09724902 96.59920784 -26.86428625 84.67782313 -31 75 C-36.62205872 59.31840479 -35.28838933 41.91651021 -28.375 26.9375 C-23.56436774 17.87313134 -11.83574938 0 0 0 Z " fill="#010A14" transform="translate(40,16)"/>
<path d="M0 0 C0.66 0.33 1.32 0.66 2 1 C1.67 1.33 1.34 1.66 1 2 C1.66 2.33 2.32 2.66 3 3 C3 3.66 3 4.32 3 5 C4.98 5.33 6.96 5.66 9 6 C8.8125 8.3125 8.8125 8.3125 8 11 C3.64295907 14.59115483 -0.44181968 14.42337284 -5.8125 14.3125 C-6.58142578 14.31572266 -7.35035156 14.31894531 -8.14257812 14.32226562 C-13.39029918 14.2735526 -17.95610604 13.4435774 -23 12 C-23 11.34 -23 10.68 -23 10 C-28.61 9.67 -34.22 9.34 -40 9 C-40 8.67 -40 8.34 -40 8 C-31.09 7.67 -22.18 7.34 -13 7 C-13 7.99 -13 8.98 -13 10 C-7.39 10 -1.78 10 4 10 C3.505 8.515 3.505 8.515 3 7 C-1.95 6.01 -1.95 6.01 -7 5 C-4.51068299 2.51068299 -3.16125753 1.22371259 0 0 Z " fill="#024EA0" transform="translate(96,121)"/>
<path d="M0 0 C0 3.50377985 -0.52888096 3.95802011 -2.6875 6.5625 C-10.3325387 16.42532115 -15.34485258 28.39200709 -14 41 C-12.6198831 49.77524328 -9.82912789 57.36090724 -3.3125 63.62109375 C-2 65 -2 65 -2 67 C-5.23490776 66.44225728 -6.97855006 65.62788492 -9 63 C-9 62.01 -9 61.02 -9 60 C-10.65 59.67 -12.3 59.34 -14 59 C-14.33 59.66 -14.66 60.32 -15 61 C-19.39491556 46.02212777 -18.51624726 29.72529431 -11.38671875 15.86328125 C-8.13523477 10.00195869 -4.56574259 4.89982132 0 0 Z " fill="#0845A1" transform="translate(25,27)"/>
<path d="M0 0 C12.50061139 -0.39895568 23.00232562 -0.11026296 33 8 C33.69996094 8.53882813 34.39992187 9.07765625 35.12109375 9.6328125 C40.01436912 13.61033312 44.32357896 18.22161816 47 24 C46.505 25.485 46.505 25.485 46 27 C45.731875 26.360625 45.46375 25.72125 45.1875 25.0625 C44.11332248 22.66868314 44.11332248 22.66868314 41 22 C39.28125 20.2578125 39.28125 20.2578125 37.5 18.125 C34.99734679 15.14615469 34.99734679 15.14615469 32.28125 12.3671875 C31 11 31 11 31 9 C29.824375 8.9071875 29.824375 8.9071875 28.625 8.8125 C25.27654347 8.06198388 23.31742888 7.146811 20.375 5.5 C14.7068481 2.50175502 9.33231499 2.11968293 3 2 C2.71125 2.598125 2.4225 3.19625 2.125 3.8125 C1 6 1 6 -1 9 C-1 7.68 -1 6.36 -1 5 C-1.66 5 -2.32 5 -3 5 C-2.67 4.01 -2.34 3.02 -2 2 C-1.34 2 -0.68 2 0 2 C0 1.34 0 0.68 0 0 Z M-4 11 C-3.67 11.66 -3.34 12.32 -3 13 C-3.66 12.67 -4.32 12.34 -5 12 C-4.67 11.67 -4.34 11.34 -4 11 Z " fill="#5BBAF7" transform="translate(67,15)"/>
<path d="M0 0 C2.89762005 2.45883758 3.8976495 4.87625073 5.125 8.4375 C5.45757812 9.38496094 5.79015625 10.33242188 6.1328125 11.30859375 C10.33621738 24.3542963 9.00114964 40.50134198 3.08984375 52.91064453 C0.19966503 58.34956419 -2.74313518 63.56191654 -8 67 C-6.91728468 63.8502827 -5.53527016 61.24260225 -3.6875 58.5 C5.48928714 43.6696565 6.42639364 27.25310256 2.5625 10.375 C2.05348947 8.5799387 1.534112 6.78775311 1 5 C0.64950316 3.33685814 0.31068028 1.6710376 0 0 Z " fill="#99C2DF" transform="translate(119,42)"/>
<path d="M0 0 C1.588125 -0.061875 3.17625 -0.12375 4.8125 -0.1875 C6.15248047 -0.23970703 6.15248047 -0.23970703 7.51953125 -0.29296875 C10 0 10 0 11.82421875 1.296875 C13 3 13 3 13 6.4375 C12 10 12 10 9.875 12.4375 C7 14 7 14 0 14 C0 9.38 0 4.76 0 0 Z " fill="#1255B1" transform="translate(35,54)"/>
<path d="M0 0 C4.49797113 1.68673918 8.72886302 3.81673892 13 6 C13.66 5.34 14.32 4.68 15 4 C15.99 4.45375 16.98 4.9075 18 5.375 C25.5245236 8.565398 32.91191684 9.4350236 41 10 C41 10.33 41 10.66 41 11 C36.38 11 31.76 11 27 11 C27.33 11.99 27.66 12.98 28 14 C30.97 14.495 30.97 14.495 34 15 C34 15.33 34 15.66 34 16 C22.5 17.035 22.5 17.035 17.75 13.1875 C17.12867187 12.63578125 16.50734375 12.0840625 15.8671875 11.515625 C13.89063855 9.91122962 12.28213078 9.21868206 9.875 8.4375 C5.71514434 7.05636215 3.13678254 5.05836297 0 2 C0 1.34 0 0.68 0 0 Z " fill="#0242A9" transform="translate(29,104)"/>
<path d="M0 0 C-0.50178863 3.71323586 -1.02533297 5.66276162 -4 8 C-5.11181641 8.65548828 -5.11181641 8.65548828 -6.24609375 9.32421875 C-9.22404727 11.13633515 -12.00394716 13.12338285 -14.8125 15.1875 C-15.78832031 15.90292969 -16.76414062 16.61835937 -17.76953125 17.35546875 C-18.50558594 17.89816406 -19.24164063 18.44085938 -20 19 C-20.33 18.01 -20.66 17.02 -21 16 C-19.68 14.68 -18.36 13.36 -17 12 C-17.99 12 -18.98 12 -20 12 C-18.49672524 7.94652699 -16.1278934 6.51310376 -12.5 4.3125 C-11.03046875 3.40951172 -11.03046875 3.40951172 -9.53125 2.48828125 C-5.96778195 0.39309402 -4.12987668 -0.10868097 0 0 Z " fill="#F5FBFD" transform="translate(53,19)"/>
<path d="M0 0 C0.99 0.33 1.98 0.66 3 1 C2.05065487 2.67180274 1.09026687 4.33733936 0.125 6 C-0.40867187 6.928125 -0.94234375 7.85625 -1.4921875 8.8125 C-1.98976563 9.534375 -2.48734375 10.25625 -3 11 C-3.66 11 -4.32 11 -5 11 C-5.28875 11.5775 -5.5775 12.155 -5.875 12.75 C-6.91666667 14.83333333 -7.95833333 16.91666667 -9 19 C-9.66 19 -10.32 19 -11 19 C-11.04898437 19.90363281 -11.09796875 20.80726562 -11.1484375 21.73828125 C-11.22320313 22.91777344 -11.29796875 24.09726562 -11.375 25.3125 C-11.47941406 27.07013672 -11.47941406 27.07013672 -11.5859375 28.86328125 C-12 32 -12 32 -14 35 C-16.45220923 30.09558155 -15.38847023 24.37414095 -13.953125 19.296875 C-11.71961252 12.70944818 -9.75449159 8.45527782 -4.4375 3.9375 C-2.16449982 2.02764998 -2.16449982 2.02764998 0 0 Z " fill="#8CC6F5" transform="translate(29,35)"/>
<path d="M0 0 C-0.99 0.99 -1.98 1.98 -3 3 C-2.34 3 -1.68 3 -1 3 C-1.41170944 7.80327682 -3.47927615 10.01175583 -7 13 C-7.80824219 13.6909375 -8.61648437 14.381875 -9.44921875 15.09375 C-16.57207306 21 -16.57207306 21 -20 21 C-20 21.66 -20 22.32 -20 23 C-24.79482068 25.75702189 -28.58609132 26.53328373 -34 27 C-34 27.66 -34 28.32 -34 29 C-34.66 28.67 -35.32 28.34 -36 28 C-34.64720835 25.2944167 -33.45637599 25.33070104 -30.625 24.375 C-25.12600985 22.29901237 -20.86587592 19.20241478 -16.25 15.609375 C-14 14 -14 14 -12 14 C-11.9071875 13.1646875 -11.9071875 13.1646875 -11.8125 12.3125 C-10.6519231 9.00931958 -8.59786554 7.28105267 -6 5 C-5.34 5 -4.68 5 -4 5 C-4 4.34 -4 3.68 -4 3 C-4.99 3 -5.98 3 -7 3 C-6.67 2.01 -6.34 1.02 -6 0 C-3 -1 -3 -1 0 0 Z " fill="#5EBDF8" transform="translate(67,17)"/>
<path d="M0 0 C7.14322413 10.71483619 4.38930131 27.0151624 2 39 C0.42578125 42.4765625 0.42578125 42.4765625 -1 45 C-2.65 44.34 -4.3 43.68 -6 43 C-5.01 42.505 -5.01 42.505 -4 42 C-3.2986716 39.67684969 -2.63514826 37.34210921 -2 35 C-1.65412842 34.36835937 -1.30825684 33.73671875 -0.9519043 33.0859375 C0.20248385 30.55629084 0.2434893 28.71113298 0.23046875 25.9375 C0.22853516 24.97585937 0.22660156 24.01421875 0.22460938 23.0234375 C0.20624023 21.52683594 0.20624023 21.52683594 0.1875 20 C0.18685547 19.00226562 0.18621094 18.00453125 0.18554688 16.9765625 C0.23438911 11.87127016 0.23438911 11.87127016 -0.5378418 6.85546875 C-1.15870554 4.36283039 -0.6150651 2.46026041 0 0 Z " fill="#013CA0" transform="translate(117,44)"/>
<path d="M0 0 C5.50171658 5.50171658 4.91409352 16.72137791 5 24 C4.19035221 39.04145675 -1.93443001 54.22253075 -12.84375 64.78515625 C-14.18045898 65.91694522 -15.5819708 66.97192883 -17 68 C-17.66 67.67 -18.32 67.34 -19 67 C-18.03900391 66.01773438 -18.03900391 66.01773438 -17.05859375 65.015625 C-3.85369608 51.08258841 2.6103707 36.27813612 2.34545898 17.04248047 C2.14546976 11.24075924 1.36372167 5.63752797 0 0 Z " fill="#0B1E46" transform="translate(124,49)"/>
<path d="M0 0 C2 2 2 2 2 5 C2.99 4.67 3.98 4.34 5 4 C5.57880938 22.86489821 5.57880938 22.86489821 2 29 C0.68 29.33 -0.64 29.66 -2 30 C-1.34 20.1 -0.68 10.2 0 0 Z " fill="#012378" transform="translate(111,54)"/>
<path d="M0 0 C-1.68921889 1.12614593 -3.38900743 2.23784616 -5.12109375 3.296875 C-10.08165132 6.40872562 -13.01761169 8.98958764 -16 14 C-16.66 14 -17.32 14 -18 14 C-18.33 15.32 -18.66 16.64 -19 18 C-27.96101244 18.21767642 -36.2215548 18.04404545 -45 16 C-42.0751367 15.15808218 -39.49258344 14.88180687 -36.453125 14.90234375 C-35.60878906 14.90556641 -34.76445313 14.90878906 -33.89453125 14.91210938 C-33.02183594 14.92048828 -32.14914063 14.92886719 -31.25 14.9375 C-30.36183594 14.94201172 -29.47367188 14.94652344 -28.55859375 14.95117188 C-26.37232671 14.962926 -24.18619821 14.97935751 -22 15 C-22 14.01 -22 13.02 -22 12 C-20.38263741 10.6072711 -18.7074998 9.28062485 -17 8 C-16.38125 7.34 -15.7625 6.68 -15.125 6 C-10.55227208 1.69625608 -6.43102247 -0.62741683 0 0 Z " fill="#0385EA" transform="translate(97,109)"/>
<path d="M0 0 C3.20007035 2.32732389 3.6518518 5.0717353 4.45703125 8.80859375 C5.01640514 11.06621067 5.80030159 13.10225724 6.6875 15.25 C7.97555536 18.93015817 8.1279943 19.57816493 7 23 C7 22.01 7 21.02 7 20 C6.34 20 5.68 20 5 20 C4.67 21.65 4.34 23.3 4 25 C3.67 25 3.34 25 3 25 C2.9484375 24.39671875 2.896875 23.7934375 2.84375 23.171875 C2.21467158 18.19050234 2.21467158 18.19050234 -0.9140625 14.51171875 C-2.91766821 13.53823541 -4.88714983 12.70264552 -7 12 C-7 11.34 -7 10.68 -7 10 C-6.21625 9.4225 -5.4325 8.845 -4.625 8.25 C-1.60192016 5.65878871 -0.95078902 3.80315606 0 0 Z " fill="#1B51A6" transform="translate(57,57)"/>
<path d="M0 0 C-0.57658272 3.89193339 -2.4999525 6.04539841 -5 9 C-5.99 10.485 -5.99 10.485 -7 12 C-8.8046875 12.984375 -8.8046875 12.984375 -10.875 13.75 C-11.55304688 14.01296875 -12.23109375 14.2759375 -12.9296875 14.546875 C-15.29899512 15.06544044 -16.72122356 14.75618591 -19 14 C-17.68 13.34 -16.36 12.68 -15 12 C-15.33 10.68 -15.66 9.36 -16 8 C-11.10935153 3.39873901 -7.04188349 0 0 0 Z " fill="#78E9FD" transform="translate(102,111)"/>
<path d="M0 0 C0.33 0 0.66 0 1 0 C1 13.2 1 26.4 1 40 C0.67 40 0.34 40 0 40 C-0.33 31.09 -0.66 22.18 -1 13 C-2.98 15.64 -4.96 18.28 -7 21 C-7.94252957 17.22988171 -8.0354182 16.06247647 -7.1875 12.5 C-6.93033203 11.37078125 -6.93033203 11.37078125 -6.66796875 10.21875 C-5.99511069 7.98375948 -5.10497297 6.05142661 -4 4 C-3.34 4 -2.68 4 -2 4 C-1.34 2.68 -0.68 1.36 0 0 Z " fill="#266BC1" transform="translate(25,52)"/>
<path d="M0 0 C2.2477975 2.05233685 3.0022242 3.00667261 4 6 C4.12365396 8.90730598 4.18514971 11.78019458 4.1875 14.6875 C4.19974609 15.46544922 4.21199219 16.24339844 4.22460938 17.04492188 C4.24440606 24.95699607 3.08274266 31.64657167 -2 38 C-6.61695327 42.59213094 -9.88223983 44.01781396 -16.25 44.0625 C-18.10625 44.0315625 -18.10625 44.0315625 -20 44 C-19.67 43.34 -19.34 42.68 -19 42 C-16.92578125 41.5078125 -16.92578125 41.5078125 -14.3125 41.125 C-9.67198613 40.24456014 -6.54613605 39.29284062 -3 36 C0.77352726 29.74903775 1.60617614 24.00028015 1.4375 16.8125 C1.44458984 15.94947266 1.45167969 15.08644531 1.45898438 14.19726562 C1.40774791 9.04603063 0.77421785 5.49614616 -2 1 C-1.34 0.67 -0.68 0.34 0 0 Z " fill="#A8CAE9" transform="translate(107,50)"/>
<path d="M0 0 C-2.31 0.99 -4.62 1.98 -7 3 C-6.87625 3.721875 -6.7525 4.44375 -6.625 5.1875 C-7 8 -7 8 -9.8125 10.5 C-10.33457031 10.8609375 -10.85664062 11.221875 -11.39453125 11.59375 C-13.18866119 12.99325081 -13.18866119 12.99325081 -14.296875 15.49609375 C-16.5689413 18.83644811 -18.63767926 19.32464693 -22.4375 20.5625 C-27.07412173 22.08694105 -29.68585048 23.43600329 -33 27 C-35.75 27.75 -35.75 27.75 -38 28 C-36.92598892 25.08482708 -36.22189824 23.22189824 -34 21 C-33.01 21 -32.02 21 -31 21 C-23.66416903 18.84984265 -16.97266558 15.03686567 -12.36328125 8.77734375 C-11.91339844 8.19082031 -11.46351562 7.60429687 -11 7 C-10.34 7 -9.68 7 -9 7 C-9.33 5.02 -9.66 3.04 -10 1 C-3.71428571 -1.42857143 -3.71428571 -1.42857143 0 0 Z " fill="#BBE8FD" transform="translate(66,15)"/>
<path d="M0 0 C0.66 0 1.32 0 2 0 C1.5625 1.3125 1.125 2.625 0.6875 3.9375 C0.41679687 4.76507813 0.14609375 5.59265625 -0.1328125 6.4453125 C-0.67304473 8.03680745 -1.24589242 9.61805392 -1.8671875 11.1796875 C-3.95939725 16.61943285 -4.20263097 21.30660041 -4.0390625 27.11328125 C-3.98867272 30.83708574 -4.43452668 34.32442341 -5 38 C-7 37 -7 37 -7.6328125 35.28515625 C-8.92456079 29.45178501 -9.2241478 23.96482204 -9 18 C-8.34 17.67 -7.68 17.34 -7 17 C-6.28348089 15.10862162 -5.65016816 13.18529273 -5.0625 11.25 C-3.8068219 7.1220218 -2.51048411 3.53958595 0 0 Z " fill="#1B6DCC" transform="translate(19,40)"/>
<path d="M0 0 C0.66 0 1.32 0 2 0 C4.88996879 7.70210288 6.67580986 14.76557056 7 23 C8.32 23.33 9.64 23.66 11 24 C10.67 25.98 10.34 27.96 10 30 C8.68 30.33 7.36 30.66 6 31 C4.65279868 25.67005304 3.31997032 20.33675377 2 15 C1.76539062 14.05769531 1.53078125 13.11539063 1.2890625 12.14453125 C0.30923675 8.01932284 -0.21753431 4.24191908 0 0 Z " fill="#0B2D7C" transform="translate(70,53)"/>
<path d="M0 0 C1.09441406 0.41572266 1.09441406 0.41572266 2.2109375 0.83984375 C11.83901087 4.17995315 20.87842127 4.77280407 31 5 C30.67 5.99 30.34 6.98 30 8 C32.64 8.33 35.28 8.66 38 9 C38 9.33 38 9.66 38 10 C29.75877498 9.54906505 21.56574518 8.68642032 13.375 7.6875 C11.91682861 7.52930786 11.91682861 7.52930786 10.42919922 7.36791992 C9.51154785 7.25037354 8.59389648 7.13282715 7.6484375 7.01171875 C6.82520996 6.91334717 6.00198242 6.81497559 5.15380859 6.71362305 C2.34433047 5.78275651 1.47666867 4.5172521 0 2 C0 1.34 0 0.68 0 0 Z " fill="#002670" transform="translate(43,125)"/>
<path d="M0 0 C5.32388244 7.98582366 6.87975984 16.59587866 8 26 C8.66 26 9.32 26 10 26 C10 28.31 10 30.62 10 33 C8.02 33.495 8.02 33.495 6 34 C5.13747081 30.12397123 4.28327549 26.24620606 3.43652344 22.36669922 C3.00628328 20.40366834 2.56959485 18.44205433 2.1328125 16.48046875 C1.86210938 15.23652344 1.59140625 13.99257812 1.3125 12.7109375 C1.06113281 11.56931152 0.80976562 10.42768555 0.55078125 9.25146484 C0.01632725 6.0963858 -0.10148401 3.19251777 0 0 Z " fill="#082672" transform="translate(89,51)"/>
<path d="M0 0 C-1.04874998 2.62187494 -1.64931313 3.79371361 -4.125 5.25 C-4.74375 5.4975 -5.3625 5.745 -6 6 C-6 6.99 -6 7.98 -6 9 C-12.71173653 11.10697552 -22.74032269 11.38197268 -29.3125 8.625 C-32 7 -32 7 -34 5 C-28.125 5.875 -28.125 5.875 -27 7 C-16.04703509 8.11024206 -9.27970364 0 0 0 Z " fill="#006FDC" transform="translate(81,115)"/>
<path d="M0 0 C0.33 0 0.66 0 1 0 C1.02578125 1.13695312 1.0515625 2.27390625 1.078125 3.4453125 C1.68973597 22.30879058 6.67569633 35.38118719 18.51953125 50.125 C19.75684619 51.69204795 20.89246115 53.33869172 22 55 C14.05043984 51.53525807 9.57043332 43.73671227 5.625 36.375 C5.29145508 35.75407471 4.95791016 35.13314941 4.61425781 34.4934082 C0.50471052 26.51400201 -0.27516506 19.43956504 -0.125 10.5625 C-0.11597656 9.54478516 -0.10695313 8.52707031 -0.09765625 7.47851562 C-0.07424698 4.98542844 -0.041457 2.49284141 0 0 Z " fill="#010C1F" transform="translate(7,62)"/>
<path d="M0 0 C1.09570312 0.13277344 2.19140625 0.26554688 3.3203125 0.40234375 C18.85258464 2.16934847 34.385182 2.61510569 50 3 C50 3.33 50 3.66 50 4 C37.01810593 6.91603202 22.0471831 5.69404482 9 3.625 C8.19997559 3.49899414 7.39995117 3.37298828 6.57568359 3.24316406 C4.70093656 2.90956142 2.84633267 2.46585709 1 2 C0.67 1.34 0.34 0.68 0 0 Z " fill="#001228" transform="translate(46,135)"/>
<path d="M0 0 C1.32 0.66 2.64 1.32 4 2 C3.265611 3.32129824 2.51183106 4.63183171 1.75 5.9375 C1.33234375 6.66839844 0.9146875 7.39929688 0.484375 8.15234375 C-1.31692625 10.39448978 -2.22744929 10.50196774 -5 11 C-7.2862009 12.03845041 -9.53237079 13.14107454 -11.78125 14.2578125 C-14.31574627 15.10561935 -15.52133383 14.89006649 -18 14 C-11.47674419 9.26744186 -11.47674419 9.26744186 -8.4375 7.5625 C-5.13115989 5.44305121 -2.71195541 2.83809287 0 0 Z " fill="#058BEA" transform="translate(115,94)"/>
<path d="M0 0 C4.91541209 0.45724764 7.33870158 1.73451763 11 5 C14.40431947 7.26954631 16.16524202 7.36549949 20.1875 7.625 C21.27417969 7.69976562 22.36085938 7.77453125 23.48046875 7.8515625 C24.72763672 7.92503906 24.72763672 7.92503906 26 8 C26 7.34 26 6.68 26 6 C30.455 5.505 30.455 5.505 35 5 C30.92050159 9.07949841 28.13798229 11.18042025 22.3125 11.5 C16.37912437 11.33174009 12.02293143 8.96930814 7 6 C5.96875 5.443125 4.9375 4.88625 3.875 4.3125 C3.25625 3.879375 2.6375 3.44625 2 3 C2 2.34 2 1.68 2 1 C1.34 0.67 0.68 0.34 0 0 Z " fill="#014FBB" transform="translate(37,112)"/>
<path d="M0 0 C4.60349891 0.52293004 7.75565615 2.54888987 11.4375 5.1875 C12.01008545 5.59025146 12.5826709 5.99300293 13.17260742 6.40795898 C17.20645582 9.29701215 20.69287811 12.31492133 24 16 C23.67 16.66 23.34 17.32 23 18 C21.35 16.68 19.7 15.36 18 14 C17.67 14.66 17.34 15.32 17 16 C16.39671875 15.44570313 15.7934375 14.89140625 15.171875 14.3203125 C13.97304687 13.23363281 13.97304687 13.23363281 12.75 12.125 C11.96109375 11.40570313 11.1721875 10.68640625 10.359375 9.9453125 C8.27973832 8.23064517 6.45580733 7.07019127 4 6 C4 4.68 4 3.36 4 2 C2.68 1.34 1.36 0.68 0 0 Z " fill="#03317C" transform="translate(90,14)"/>
<path d="M0 0 C0 2.79784711 -0.37195775 4.9790678 -1 7.6875 C-1.2784375 8.89986328 -1.2784375 8.89986328 -1.5625 10.13671875 C-1.706875 10.75160156 -1.85125 11.36648437 -2 12 C-8.91383514 14.13120646 -15.29881576 14.23698014 -22.5 14.125 C-23.60859375 14.11597656 -24.7171875 14.10695312 -25.859375 14.09765625 C-28.57314592 14.07426167 -31.28645545 14.04148175 -34 14 C-26.82224878 9.21483252 -16.36847215 10.90193197 -8 11 C-7.67 10.01 -7.34 9.02 -7 8 C-6.34 7.67 -5.68 7.34 -5 7 C-3.98133771 5.34467377 -2.98189187 3.67739862 -2 2 C-1.34 1.34 -0.68 0.68 0 0 Z " fill="#34B4F3" transform="translate(86,115)"/>
<path d="M0 0 C7.69396993 3.25514112 11.11079047 8.36811288 14.99609375 15.4765625 C16 18 16 18 15 21 C14.01 19.02 13.02 17.04 12 15 C11.34 15 10.68 15 10 15 C9.67 14.34 9.34 13.68 9 13 C8.01 14.485 8.01 14.485 7 16 C6.66226563 15.30132812 6.32453125 14.60265625 5.9765625 13.8828125 C5.53054687 12.97273438 5.08453125 12.06265625 4.625 11.125 C4.18414062 10.22007813 3.74328125 9.31515625 3.2890625 8.3828125 C2.09497301 5.90465528 2.09497301 5.90465528 0 4 C0 2.68 0 1.36 0 0 Z " fill="#0B4497" transform="translate(108,28)"/>
<path d="M0 0 C6.03633493 6.03633493 4.10002526 19.09675524 4.125 27.125 C4.12959229 27.96675781 4.13418457 28.80851562 4.13891602 29.67578125 C4.12342517 35.75314966 4.12342517 35.75314966 3 38 C2.34 38 1.68 38 1 38 C-0.06663461 34.64997723 0.05885849 31.97789236 0.4375 28.5 C1.33634025 18.90458851 1.18461591 9.56154272 0 0 Z " fill="#146ECE" transform="translate(119,45)"/>
<path d="M0 0 C3.55780196 0.60990891 6.6828589 1.5783681 10 3 C10.33 5.31 10.66 7.62 11 10 C4.59616396 13.67627624 1.42829392 15.11981119 -6 15 C-3.4345406 12.4345406 -1.52313332 12.45953913 2 12 C2.33 11.01 2.66 10.02 3 9 C3.99 9 4.98 9 6 9 C5.88658466 6.59122743 5.88658466 6.59122743 5 4 C2.52066803 2.22851628 2.52066803 2.22851628 0 1 C0 0.67 0 0.34 0 0 Z " fill="#071928" transform="translate(102,123)"/>
<path d="M0 0 C0 3 0 3 -2 5.1875 C-2.66 5.785625 -3.32 6.38375 -4 7 C-4.66 6.67 -5.32 6.34 -6 6 C-5.34 4.68 -4.68 3.36 -4 2 C-11.79978824 4.71623686 -11.79978824 4.71623686 -18 10 C-18.66 10 -19.32 10 -20 10 C-20 10.99 -20 11.98 -20 13 C-19.34 13.33 -18.68 13.66 -18 14 C-19.65 14.66 -21.3 15.32 -23 16 C-21.77809799 10.44589996 -20.18077801 7.08787183 -16 3 C-10.6019202 -0.11427681 -6.04840703 -0.37031063 0 0 Z " fill="#40D2FD" transform="translate(106,109)"/>
<path d="M0 0 C0.99 0.33 1.98 0.66 3 1 C3.39832031 1.81082031 3.79664063 2.62164062 4.20703125 3.45703125 C5.85679095 6.34852906 5.85679095 6.34852906 9.51171875 7.07421875 C10.9003862 7.29972743 12.29275401 7.50328526 13.6875 7.6875 C15.1291722 7.91498758 16.57058324 8.1441369 18.01171875 8.375 C18.70056152 8.47941406 19.3894043 8.58382812 20.09912109 8.69140625 C23.46240548 9.2374108 26.71452205 10.11018306 30 11 C30 11.33 30 11.66 30 12 C23.46264368 12.12571839 23.46264368 12.12571839 21.203125 11.51171875 C17.01065421 10.53793564 12.6026563 10.76276814 8.3125 10.671875 C5 10 5 10 2.609375 7.62890625 C0.99410742 4.99037449 0.34889589 3.05283907 0 0 Z " fill="#001F56" transform="translate(40,124)"/>
<path d="M0 0 C3.63 0 7.26 0 11 0 C12.00408305 4.17922866 13.00075509 8.36013568 13.99072266 12.54272461 C14.32822906 13.96410226 14.66772386 15.38500934 15.00927734 16.80541992 C15.50106229 18.85213423 15.98557218 20.90045773 16.46875 22.94921875 C16.90864258 24.79519653 16.90864258 24.79519653 17.35742188 26.6784668 C17.91668318 29.56932927 18.13611113 32.07118015 18 35 C17.34 34.67 16.68 34.34 16 34 C15.32983398 31.60742188 15.32983398 31.60742188 14.74609375 28.46875 C14.53146484 27.34855469 14.31683594 26.22835937 14.09570312 25.07421875 C13.87849609 23.89472656 13.66128906 22.71523437 13.4375 21.5 C13.00199549 19.17646284 12.5633651 16.85350863 12.12109375 14.53125 C11.9295874 13.49548828 11.73808105 12.45972656 11.54077148 11.39257812 C11.23711774 9.05917746 11.23711774 9.05917746 10 8 C9.95907063 5.66702567 9.95758277 3.33294775 10 1 C7.03 1 4.06 1 1 1 C1.33 2.98 1.66 4.96 2 7 C1.34 7 0.68 7 0 7 C0 4.69 0 2.38 0 0 Z " fill="#97B9DE" transform="translate(77,50)"/>
<path d="M0 0 C0.99 0 1.98 0 3 0 C3.98163422 1.93625098 4.96022454 3.87404539 5.9375 5.8125 C6.48277344 6.89144531 7.02804688 7.97039062 7.58984375 9.08203125 C9 12 9 12 10 15 C10.66 15 11.32 15 12 15 C14.125 16.875 14.125 16.875 16 19 C16 19.66 16 20.32 16 21 C16.66 21 17.32 21 18 21 C18 21.99 18 22.98 18 24 C14.17043634 22.48538606 12.30792726 20.22111436 9.8125 17 C9.11769531 16.113125 8.42289063 15.22625 7.70703125 14.3125 C6 12 6 12 5 10 C4.01 10 3.02 10 2 10 C-0.09350689 6.5980513 -0.17942163 3.94727588 0 0 Z " fill="#3679C8" transform="translate(12,88)"/>
<path d="M0 0 C2.09933151 1.70396669 2.92588781 2.60607032 3.43359375 5.3046875 C3.43991387 9.46332724 3.41886188 12.2428266 1.375 15.9375 C-4.61274951 21.13738773 -9.78813697 21.39854683 -17.375 21.1875 C-18.30183594 21.17396484 -19.22867188 21.16042969 -20.18359375 21.14648438 C-22.45633998 21.11133881 -24.72785847 21.06214132 -27 21 C-27 20.67 -27 20.34 -27 20 C-25.515 19.94392578 -25.515 19.94392578 -24 19.88671875 C-12.19208169 19.48196659 -12.19208169 19.48196659 -1.80859375 14.28515625 C0.56632038 11.28445482 0.41416097 9.52570228 0.25 5.75 C0.19585937 4.13351563 0.19585937 4.13351563 0.140625 2.484375 C0.09421875 1.66453125 0.0478125 0.8446875 0 0 Z " fill="#6FA9E0" transform="translate(57,72)"/>
<path d="M0 0 C0 0.33 0 0.66 0 1 C-2.97 1 -5.94 1 -9 1 C-8.69964844 2.18078125 -8.39929687 3.3615625 -8.08984375 4.578125 C-7.70524122 6.13529623 -7.32115351 7.69259468 -6.9375 9.25 C-6.73833984 10.02730469 -6.53917969 10.80460937 -6.33398438 11.60546875 C-6.15029297 12.35957031 -5.96660156 13.11367188 -5.77734375 13.890625 C-5.51812134 14.92751465 -5.51812134 14.92751465 -5.25366211 15.98535156 C-4.96843363 18.25070809 -5.31923805 19.8368312 -6 22 C-7.66489182 18.07561214 -8.87204037 14.10899581 -10 10 C-10.66 10.66 -11.32 11.32 -12 12 C-12.33 9.36 -12.66 6.72 -13 4 C-13.99 3.67 -14.98 3.34 -16 3 C-11.28205521 -2.36869579 -6.43558785 -1.03690732 0 0 Z " fill="#2E6FC0" transform="translate(68,49)"/>
<path d="M0 0 C2.87477998 2.7544698 5.25911953 5.61604448 7.625 8.8125 C14.15303793 17.0329922 22.59111963 21.65589991 32 26 C29 27 29 27 26.87109375 26.28515625 C16.2180581 20.93298906 6.1135872 13.41574116 0 3 C0 2.01 0 1.02 0 0 Z " fill="#7BCBF5" transform="translate(16,97)"/>
<path d="M0 0 C3.3 0 6.6 0 10 0 C10.33 1.32 10.66 2.64 11 4 C8.36 4 5.72 4 3 4 C3 7.3 3 10.6 3 14 C2.01 14 1.02 14 0 14 C0 9.38 0 4.76 0 0 Z " fill="#16418E" transform="translate(35,54)"/>
<path d="M0 0 C0 0.99 0 1.98 0 3 C4.95 3 9.9 3 15 3 C12.38184261 5.61815739 10.49531662 5.26112488 6.92773438 5.2734375 C5.75694336 5.26183594 5.75694336 5.26183594 4.5625 5.25 C3.39750977 5.26160156 3.39750977 5.26160156 2.20898438 5.2734375 C-1.70052168 5.25996806 -3.67947032 5.21368645 -7 3 C-9.22131423 2.6349209 -9.22131423 2.6349209 -11.66796875 2.5859375 C-12.56064453 2.54726562 -13.45332031 2.50859375 -14.37304688 2.46875 C-15.30181641 2.4378125 -16.23058594 2.406875 -17.1875 2.375 C-18.12787109 2.33632812 -19.06824219 2.29765625 -20.03710938 2.2578125 C-22.3578771 2.16356813 -24.67863748 2.07795975 -27 2 C-27 1.67 -27 1.34 -27 1 C-23.81265063 0.83036895 -20.62510059 0.66483749 -17.4375 0.5 C-16.54224609 0.45230469 -15.64699219 0.40460938 -14.72460938 0.35546875 C-9.80829229 0.10334993 -4.9226912 -0.0540213 0 0 Z " fill="#056BD0" transform="translate(83,128)"/>
<path d="M0 0 C0.66 0.33 1.32 0.66 2 1 C1.01 2.485 1.01 2.485 0 4 C0 4.99 0 5.98 0 7 C1.2375 7.680625 1.2375 7.680625 2.5 8.375 C3.325 8.91125 4.15 9.4475 5 10 C5.3125 12.6875 5.3125 12.6875 5 15 C4.01 15 3.02 15 2 15 C2 15.66 2 16.32 2 17 C0.02 17.33 -1.96 17.66 -4 18 C-3.195625 17.4225 -2.39125 16.845 -1.5625 16.25 C0.97866739 14.01873107 1.65120368 13.25543229 2 10 C-0.97 9.505 -0.97 9.505 -4 9 C-4 8.34 -4 7.68 -4 7 C-4.99 6.67 -5.98 6.34 -7 6 C-4.69 4.02 -2.38 2.04 0 0 Z " fill="#0E3D64" transform="translate(103,117)"/>
<path d="M0 0 C2.31 0 4.62 0 7 0 C6.67 0.66 6.34 1.32 6 2 C5.01 2 4.02 2 3 2 C3 2.66 3 3.32 3 4 C3.99 4.33 4.98 4.66 6 5 C5.835 5.763125 5.67 6.52625 5.5 7.3125 C4.90854604 10.03596236 4.90854604 10.03596236 5 13 C5.66 13.33 6.32 13.66 7 14 C4.69 14 2.38 14 0 14 C0 9.38 0 4.76 0 0 Z " fill="#002274" transform="translate(36,73)"/>
<path d="M0 0 C0.99 0.33 1.98 0.66 3 1 C2.01 1.33 1.02 1.66 0 2 C-0.28875 2.94875 -0.5775 3.8975 -0.875 4.875 C-2.27479747 8.76332631 -3.38877561 9.15426309 -7 11 C-8.77132359 12.34636479 -10.51967067 13.71557827 -12.25390625 15.109375 C-14 16 -14 16 -16.21484375 15.640625 C-16.80394531 15.42921875 -17.39304687 15.2178125 -18 15 C-17.11957031 14.33613281 -16.23914063 13.67226562 -15.33203125 12.98828125 C-14.1587036 12.09655224 -12.98553497 11.20461398 -11.8125 10.3125 C-10.9452832 9.65991211 -10.9452832 9.65991211 -10.06054688 8.99414062 C-6.42004107 6.21748365 -3.16585793 3.30894756 0 0 Z " fill="#006ACF" transform="translate(111,93)"/>
<path d="M0 0 C2.90976021 4.36464031 2.42397085 8.35807588 2.4375 13.5 C2.44136719 14.4914502 2.44523437 15.48290039 2.44921875 16.50439453 C2.33028587 24.04548231 1.26685863 29.63018962 -3 36 C-4 33 -4 33 -2.60546875 29.625 C-0.30438346 23.90437361 -0.43464332 18.09320696 -0.3125 12 C-0.27833984 10.84371094 -0.24417969 9.68742187 -0.20898438 8.49609375 C-0.12706892 5.66415954 -0.05773478 2.83251299 0 0 Z " fill="#003192" transform="translate(116,50)"/>
<path d="M0 0 C0.99 0.33 1.98 0.66 3 1 C2.05065487 2.67180274 1.09026687 4.33733936 0.125 6 C-0.40867187 6.928125 -0.94234375 7.85625 -1.4921875 8.8125 C-1.98976563 9.534375 -2.48734375 10.25625 -3 11 C-3.66 11 -4.32 11 -5 11 C-5.4021875 11.86625 -5.4021875 11.86625 -5.8125 12.75 C-7.01719859 15.0325868 -8.40798115 16.9737942 -10 19 C-9.31401605 12.31165645 -7.15853627 6.2111835 -2.4375 1.375 C-1.633125 0.92125 -0.82875 0.4675 0 0 Z " fill="#5EB1F3" transform="translate(29,35)"/>
<path d="M0 0 C6.73457012 0.84182126 9.30900618 4.17616425 13.3984375 9.39453125 C15.01213129 12.01973553 15.61878263 13.9665989 16 17 C15.01 16.34 14.02 15.68 13 15 C13 14.34 13 13.68 13 13 C12.01 12.67 11.02 12.34 10 12 C8.28125 10.29296875 8.28125 10.29296875 6.5 8.1875 C5.9121875 7.50042969 5.324375 6.81335938 4.71875 6.10546875 C3.08850576 4.10841956 1.52939678 2.0749438 0 0 Z " fill="#2E86DD" transform="translate(98,25)"/>
<path d="M0 0 C2.475 0.495 2.475 0.495 5 1 C5.33 1.99 5.66 2.98 6 4 C6.9590625 4.4640625 6.9590625 4.4640625 7.9375 4.9375 C10.45468915 6.2342338 10.96886948 7.4221737 12 10 C12.66 10 13.32 10 14 10 C14.33 10.99 14.66 11.98 15 13 C9.5096946 11.66090112 5.79282357 9.09304707 2 5 C0.5625 2.125 0.5625 2.125 0 0 Z " fill="#266EC8" transform="translate(23,95)"/>
<path d="M0 0 C0.33 0.99 0.66 1.98 1 3 C-0.55295444 4.32378058 -2.11780082 5.63361849 -3.6875 6.9375 C-4.55761719 7.66839844 -5.42773438 8.39929688 -6.32421875 9.15234375 C-9.01522974 11.0105163 -10.78756588 11.63534532 -14 12 C-12.35 10.68 -10.7 9.36 -9 8 C-9.94875 8.515625 -10.8975 9.03125 -11.875 9.5625 C-12.90625 10.036875 -13.9375 10.51125 -15 11 C-15.66 10.67 -16.32 10.34 -17 10 C-15.43902526 8.8936781 -13.87614673 7.79004215 -12.3125 6.6875 C-11.44238281 6.07261719 -10.57226562 5.45773438 -9.67578125 4.82421875 C-2.59957173 0 -2.59957173 0 0 0 Z " fill="#004CB6" transform="translate(102,98)"/>
<path d="M0 0 C4.30141446 3.86880094 5.90222111 8.39178176 7 14 C7.21113834 20.67725011 6.620969 27.35582699 6 34 C5.67 34 5.34 34 5 34 C4.94392578 32.49373047 4.94392578 32.49373047 4.88671875 30.95703125 C4.4811335 21.98676399 3.26292087 13.71962443 1 5 C0.65488594 3.33573284 0.31746832 1.66976129 0 0 Z " fill="#7BB4E1" transform="translate(119,42)"/>
<path d="M0 0 C2.49619254 1.87214441 2.96865123 2.7895154 3.4375 5.9375 C2.91278296 9.61051925 1.82790258 10.70232915 -1 13 C-1.33 12.67 -1.66 12.34 -2 12 C-3.66617115 11.95936168 -5.33388095 11.957279 -7 12 C-7 11.34 -7 10.68 -7 10 C-6.21625 9.4225 -5.4325 8.845 -4.625 8.25 C-1.60192016 5.65878871 -0.95078902 3.80315606 0 0 Z " fill="#0B3280" transform="translate(57,57)"/>
<path d="M0 0 C0.99 0.33 1.98 0.66 3 1 C3.921875 2.99609375 3.921875 2.99609375 4.75 5.4375 C5.68909434 7.89864777 5.68909434 7.89864777 7 10 C10.4689995 11.5513378 10.4689995 11.5513378 14 12 C14.99 12.66 15.98 13.32 17 14 C6.26859461 13.7899547 6.26859461 13.7899547 2.375 10.8125 C-0.2483041 7.70595567 -0.9104489 6.02979942 -1 2 C-0.67 1.34 -0.34 0.68 0 0 Z " fill="#041B32" transform="translate(37,122)"/>
<path d="M0 0 C8.3162446 -0.36689314 8.3162446 -0.36689314 11.5625 1.375 C13 3 13 3 13 5 C10.03 5 7.06 5 4 5 C4 4.34 4 3.68 4 3 C4.99 2.67 5.98 2.34 7 2 C4.03 1.505 4.03 1.505 1 1 C1 5.62 1 10.24 1 15 C2.98 15 4.96 15 7 15 C7 15.33 7 15.66 7 16 C4.69 16 2.38 16 0 16 C0 10.72 0 5.44 0 0 Z " fill="#2A5195" transform="translate(35,72)"/>
<path d="M0 0 C3.3 0.99 6.6 1.98 10 3 C10 5.31 10 7.62 10 10 C11.32 10.33 12.64 10.66 14 11 C14 11.66 14 12.32 14 13 C14.66 13.33 15.32 13.66 16 14 C10.25 13.25 10.25 13.25 8 11 C8 10.01 8 9.02 8 8 C7.34 8 6.68 8 6 8 C4.64613064 6.34997172 3.31321858 4.6825613 2 3 C1.34 2.67 0.68 2.34 0 2 C0 1.34 0 0.68 0 0 Z " fill="#155BB8" transform="translate(29,97)"/>
<path d="M0 0 C0.33 0.66 0.66 1.32 1 2 C-1.60913565 7.88029079 -5.87717223 13.2134413 -11.875 15.8125 C-15.25711561 16.11092197 -18.6053939 16.05657677 -22 16 C-21.67 15.34 -21.34 14.68 -21 14 C-18.92578125 13.5078125 -18.92578125 13.5078125 -16.3125 13.125 C-10.82417951 12.09300811 -6.91923025 10.65739573 -3.52734375 5.9609375 C-2.2858481 4.00359338 -1.11453676 2.03181038 0 0 Z " fill="#5B9EDC" transform="translate(109,78)"/>
<path d="M0 0 C0.66 0 1.32 0 2 0 C2.67413211 1.91405367 3.3390332 3.83136026 4 5.75 C4.37125 6.81734375 4.7425 7.8846875 5.125 8.984375 C6 12 6 12 6 16 C5.34 16 4.68 16 4 16 C3.67 16.99 3.34 17.98 3 19 C2.49161436 16.96040523 1.99366114 14.91820862 1.5 12.875 C1.2215625 11.73804687 0.943125 10.60109375 0.65625 9.4296875 C0.03546235 6.18533302 -0.12006768 3.29185543 0 0 Z " fill="#0B3B8F" transform="translate(70,53)"/>
<path d="M0 0 C-0.99 0.495 -0.99 0.495 -2 1 C-1.92007813 1.73605469 -1.84015625 2.47210937 -1.7578125 3.23046875 C-2.073641 6.8421205 -3.27390799 7.8548846 -5.875 10.3125 C-6.59429687 11.00988281 -7.31359375 11.70726562 -8.0546875 12.42578125 C-10 14 -10 14 -12 14 C-11.52794881 9.75153925 -9.11122478 7.73180712 -6 5 C-5.34 5 -4.68 5 -4 5 C-4 4.34 -4 3.68 -4 3 C-4.99 3 -5.98 3 -7 3 C-6.67 2.01 -6.34 1.02 -6 0 C-3 -1 -3 -1 0 0 Z " fill="#6AC9FC" transform="translate(67,17)"/>
<path d="M0 0 C0.33 0 0.66 0 1 0 C1.04898437 0.71285156 1.09796875 1.42570312 1.1484375 2.16015625 C1.58128523 7.70508491 2.24028816 12.72086449 4 18 C3.67 18 3.34 18 3 18 C3 20.97 3 23.94 3 27 C3.66 27.33 4.32 27.66 5 28 C4.34 28 3.68 28 3 28 C2.67 28.66 2.34 29.32 2 30 C-0.00060017 23.38384194 -0.24246007 17.38496734 -0.125 10.5 C-0.11597656 9.48679687 -0.10695313 8.47359375 -0.09765625 7.4296875 C-0.07429007 4.95287199 -0.04153168 2.47656621 0 0 Z " fill="#043D9A" transform="translate(8,58)"/>
<path d="M0 0 C4.96114631 0.4510133 6.56641842 1.56641842 10 5 C13.63543901 6.27765265 13.63543901 6.27765265 17 7 C17 7.66 17 8.32 17 9 C18.65 9.66 20.3 10.32 22 11 C18.55031238 12.15400321 18.05999891 12.02543218 14.43359375 10.48828125 C13.09472518 9.77572186 11.7628319 9.04993154 10.4375 8.3125 C9.76525391 7.95994141 9.09300781 7.60738281 8.40039062 7.24414062 C4.78396268 5.27970559 2.1705168 3.62844884 0 0 Z " fill="#338CDF" transform="translate(30,112)"/>
<path d="M0 0 C0.9075 0.0825 1.815 0.165 2.75 0.25 C1.06078111 1.37614593 -0.63900743 2.48784616 -2.37109375 3.546875 C-7.33165132 6.65872562 -10.26761169 9.23958764 -13.25 14.25 C-13.91 14.25 -14.57 14.25 -15.25 14.25 C-15.58 15.57 -15.91 16.89 -16.25 18.25 C-17.24 17.92 -18.23 17.59 -19.25 17.25 C-15.66782181 12.1307879 -12.16760838 8.09856308 -7.25 4.25 C-6.59 3.486875 -5.93 2.72375 -5.25 1.9375 C-3.25 0.25 -3.25 0.25 0 0 Z " fill="#0499F5" transform="translate(94.25,108.75)"/>
<path d="M0 0 C0.66 0.33 1.32 0.66 2 1 C0.30542691 3.31453885 -1.0603116 4.80860393 -3.93701172 5.39453125 C-6.28187105 5.53924375 -8.58874242 5.54527725 -10.9375 5.5 C-11.73607422 5.51546875 -12.53464844 5.5309375 -13.35742188 5.546875 C-17.51353534 5.51932827 -19.51297597 5.32261464 -23.06640625 2.96875 C-23.70449219 2.3190625 -24.34257813 1.669375 -25 1 C-19.125 1.875 -19.125 1.875 -18 3 C-11.21757284 3.68749749 -6.22937109 2.5584917 0 0 Z " fill="#0165D2" transform="translate(72,119)"/>
<path d="M0 0 C2.18596362 2.18596362 2.42231831 3.07345514 3.0625 6 C3.55455208 8.21220107 3.98325137 9.96650273 5 12 C4.83219837 14.69565202 4.38844355 17.32405554 4 20 C2 19 2 19 1.3671875 17.28515625 C0.07543921 11.45178501 -0.2241478 5.96482204 0 0 Z " fill="#3885D7" transform="translate(10,58)"/>
<path d="M0 0 C0.66 0.33 1.32 0.66 2 1 C0.37334777 4.76163329 -1.21041923 6.38277958 -4.9375 7.875 C-8.03392717 9.00856679 -9.86128052 9.0251746 -13 8 C-11.68 7.34 -10.36 6.68 -9 6 C-9.33 4.68 -9.66 3.36 -10 2 C-9.67 2.66 -9.34 3.32 -9 4 C-7.68628013 3.52418802 -6.37405454 3.04424851 -5.0625 2.5625 C-4.33160156 2.29566406 -3.60070312 2.02882813 -2.84765625 1.75390625 C-1.01694322 1.14613052 -1.01694322 1.14613052 0 0 Z " fill="#74E7FC" transform="translate(96,117)"/>
<path d="M0 0 C3.68767843 4.47789523 6.831371 9.21053684 10 14.0625 C11.88147472 16.82591599 13.8756892 19.42047974 16 22 C8.63932286 18.89471433 3.31467709 11.04368882 0 4 C0 2.68 0 1.36 0 0 Z " fill="#02101D" transform="translate(13,95)"/>
<path d="M0 0 C2.97 0.495 2.97 0.495 6 1 C5.67 1.99 5.34 2.98 5 4 C4.2575 4.28875 3.515 4.5775 2.75 4.875 C-0.67933773 6.27791089 -2.50284711 8.30037526 -5 11 C-5.66 11.66 -6.32 12.32 -7 13 C-6.65986985 7.55791766 -3.29703472 4.06331802 0 0 Z " fill="#B8E0F9" transform="translate(28,31)"/>
<path d="M0 0 C0.44988281 0.35191406 0.89976563 0.70382813 1.36328125 1.06640625 C6.29210908 4.84945446 11.39581921 8.21691327 16.6796875 11.484375 C19 13 19 13 21 15 C20.01 15.495 20.01 15.495 19 16 C11.8787339 12.78264159 5.31404295 7.69911852 0 2 C0 1.34 0 0.68 0 0 Z " fill="#258CCF" transform="translate(23,109)"/>
<path d="M0 0 C0.99 0.33 1.98 0.66 3 1 C2.4375 3.3125 2.4375 3.3125 1 6 C-3.24555935 8.28607042 -7.22879494 9.41814572 -12 10 C-9.45762712 7.07627119 -9.45762712 7.07627119 -7.125 6.6875 C-3.66045283 5.56661709 -2.18062632 2.8469288 0 0 Z " fill="#0EA1F6" transform="translate(114,97)"/>
<path d="M0 0 C0 3.26656076 -0.11558061 4.37819911 -2 7 C-8.30108398 10.92067447 -14.77208836 10.29346408 -22 10 C-22 9.67 -22 9.34 -22 9 C-21.31035156 8.99742188 -20.62070312 8.99484375 -19.91015625 8.9921875 C-11.44116514 8.64366935 -5.97760115 5.97760115 0 0 Z " fill="#002D89" transform="translate(62,90)"/>
<path d="M0 0 C4.70999292 7.06498939 4.24577235 14.80758825 4 23 C3.67 23 3.34 23 3 23 C2.29995665 20.1066878 1.6146758 17.21116999 0.9375 14.3125 C0.73833984 13.49587891 0.53917969 12.67925781 0.33398438 11.83789062 C-0.64631933 7.58990788 -1.38415975 4.27435495 0 0 Z " fill="#014BB1" transform="translate(117,44)"/>
<path d="M0 0 C5.80030952 1.55433131 10.30203955 2.94612072 14 8 C13.9375 10.25 13.9375 10.25 13 12 C12.01 12.495 12.01 12.495 11 13 C10.67 10.69 10.34 8.38 10 6 C9.278125 5.938125 8.55625 5.87625 7.8125 5.8125 C4.15342375 4.75543353 2.50788398 2.79449929 0 0 Z " fill="#07121C" transform="translate(102,120)"/>
<path d="M0 0 C0.78375 0.04125 1.5675 0.0825 2.375 0.125 C1.385 0.62 1.385 0.62 0.375 1.125 C0.41625 2.23875 0.4575 3.3525 0.5 4.5 C0.375 8.125 0.375 8.125 -1.625 10.125 C-2.285 9.135 -2.945 8.145 -3.625 7.125 C-4.615 6.795 -5.605 6.465 -6.625 6.125 C-3.85227273 0.18344156 -3.85227273 0.18344156 0 0 Z " fill="#C6DAED" transform="translate(103.625,48.875)"/>
<path d="M0 0 C0.99 0.33 1.98 0.66 3 1 C3 1.66 3 2.32 3 3 C3.32742187 3.60328125 3.65484375 4.2065625 3.9921875 4.828125 C5.15423754 7.33238787 5.20564173 9.0081811 5.125 11.75 C5.10695313 12.54921875 5.08890625 13.3484375 5.0703125 14.171875 C5.03550781 15.07679687 5.03550781 15.07679687 5 16 C1.83367293 12.97247083 0.13894387 10.41134843 -0.12109375 5.8984375 C-0.12456823 3.93188044 -0.06662479 1.96543122 0 0 Z " fill="#CFE3F4" transform="translate(104,50)"/>
<path d="M0 0 C-3.26545761 1.88391785 -6.28111761 2.49287967 -10 3 C-10 3.66 -10 4.32 -10 5 C-13.63 5.33 -17.26 5.66 -21 6 C-14.64679353 1.23509515 -7.89560947 -0.51493105 0 0 Z " fill="#0F4471" transform="translate(61,10)"/>
<path d="M0 0 C0.66 0.33 1.32 0.66 2 1 C1.67 2.32 1.34 3.64 1 5 C0.67 4.34 0.34 3.68 0 3 C-0.31453125 3.55429688 -0.6290625 4.10859375 -0.953125 4.6796875 C-1.38109375 5.40414062 -1.8090625 6.12859375 -2.25 6.875 C-2.66765625 7.59429687 -3.0853125 8.31359375 -3.515625 9.0546875 C-5.20309667 11.26616353 -6.40125082 12.0550003 -9 13 C-11.33203812 13.0777346 -13.66839059 13.08967728 -16 13 C-15.67 12.34 -15.34 11.68 -15 11 C-13.61845924 10.575358 -12.21860074 10.20944942 -10.8125 9.875 C-5.26631257 8.18279265 -2.92119036 4.822828 0 0 Z " fill="#5D9BD8" transform="translate(84,81)"/>
<path d="M0 0 C0.66 0.99 1.32 1.98 2 3 C2.99 3 3.98 3 5 3 C3.85569823 6.87302138 2.76679902 10.00263439 0 13 C-0.66 13 -1.32 13 -2 13 C-1.34 11.68 -0.68 10.36 0 9 C-0.66 8.67 -1.32 8.34 -2 8 C-1.34 5.36 -0.68 2.72 0 0 Z " fill="#CFE0F2" transform="translate(103,75)"/>
<path d="M0 0 C2.97 0 5.94 0 9 0 C8.67 0.99 8.34 1.98 8 3 C10.64 3.33 13.28 3.66 16 4 C16 4.33 16 4.66 16 5 C13.89505699 4.91291962 11.79097858 4.80474307 9.6875 4.6875 C7.92986328 4.60048828 7.92986328 4.60048828 6.13671875 4.51171875 C3 4 3 4 1.08203125 2.51953125 C0 1 0 1 0 0 Z " fill="#002D81" transform="translate(65,130)"/>
<path d="M0 0 C0.33 0 0.66 0 1 0 C1.3125 3.3125 1.3125 3.3125 1 7 C-1.375 8.5625 -1.375 8.5625 -4 10 C-5.35980881 13.07561246 -5.35980881 13.07561246 -6 16 C-6.33 16 -6.66 16 -7 16 C-7.34833144 11.12335991 -6.41685712 8.22949995 -4 4 C-3.34 4 -2.68 4 -2 4 C-1.34 2.68 -0.68 1.36 0 0 Z " fill="#2580D7" transform="translate(25,52)"/>
<path d="M0 0 C0.89589844 0.00322266 1.79179688 0.00644531 2.71484375 0.00976562 C4.12056641 0.02233398 4.12056641 0.02233398 5.5546875 0.03515625 C6.49957031 0.03966797 7.44445312 0.04417969 8.41796875 0.04882812 C10.75527137 0.06063268 13.09244811 0.07709866 15.4296875 0.09765625 C15.4296875 0.42765625 15.4296875 0.75765625 15.4296875 1.09765625 C14.01816406 1.18853516 14.01816406 1.18853516 12.578125 1.28125 C11.33289063 1.36503906 10.08765625 1.44882813 8.8046875 1.53515625 C7.57492188 1.61636719 6.34515625 1.69757812 5.078125 1.78125 C1.81436362 2.06429569 -1.34975109 2.50804578 -4.5703125 3.09765625 C-4.2403125 5.07765625 -3.9103125 7.05765625 -3.5703125 9.09765625 C-4.2303125 9.09765625 -4.8903125 9.09765625 -5.5703125 9.09765625 C-5.9003125 6.45765625 -6.2303125 3.81765625 -6.5703125 1.09765625 C-4.16971433 -0.10264283 -2.67670601 -0.01694118 0 0 Z " fill="#C6EBFB" transform="translate(60.5703125,12.90234375)"/>
<path d="M0 0 C0.66 0.33 1.32 0.66 2 1 C1.67 1.66 1.34 2.32 1 3 C1.886875 3.226875 2.77375 3.45375 3.6875 3.6875 C7.50327495 5.19941083 9.38568606 6.86282327 12 10 C12.875 12.1875 12.875 12.1875 13 14 C12.67 14.66 12.34 15.32 12 16 C11.01 15.67 10.02 15.34 9 15 C9.33 13.68 9.66 12.36 10 11 C6.16393369 7.62060825 2.70270446 5.12741392 -2 3 C-1.34 2.01 -0.68 1.02 0 0 Z " fill="#00090F" transform="translate(105,117)"/>
<path d="M0 0 C0.66 0.33 1.32 0.66 2 1 C1.67 2.32 1.34 3.64 1 5 C1.66 5.33 2.32 5.66 3 6 C3.6328125 8.50390625 3.6328125 8.50390625 4.125 11.5625 C4.29257812 12.57441406 4.46015625 13.58632812 4.6328125 14.62890625 C4.75398438 15.41136719 4.87515625 16.19382812 5 17 C-0.79118329 11.65429234 -0.79118329 11.65429234 -1 8 C-0.7665407 5.30743606 -0.40144934 2.67632894 0 0 Z " fill="#1D66C1" transform="translate(14,70)"/>
<path d="M0 0 C-2.96687001 1.64826111 -5.65626525 2.44271087 -9 3 C-9.33 4.32 -9.66 5.64 -10 7 C-11.98 7 -13.96 7 -16 7 C-15.375 4.5625 -15.375 4.5625 -14 2 C-11 1.25 -11 1.25 -8 1 C-5.29120665 -0.35439668 -2.99066732 -0.06501451 0 0 Z " fill="#82C6F8" transform="translate(41,40)"/>
<path d="M0 0 C0.66 0.33 1.32 0.66 2 1 C1.67 1.33 1.34 1.66 1 2 C1.66 2.33 2.32 2.66 3 3 C3 3.66 3 4.32 3 5 C3.66 5 4.32 5 5 5 C5.33 6.32 5.66 7.64 6 9 C5.34 9 4.68 9 4 9 C3.62875 8.525625 3.2575 8.05125 2.875 7.5625 C-0.10178935 5.08184221 -3.18902265 5.31237519 -7 5 C-4.88437775 2.67281553 -2.94982021 1.14186589 0 0 Z " fill="#1279CE" transform="translate(96,121)"/>
<path d="M0 0 C2.02408755 0.09002398 4.04544287 0.24641038 6.0625 0.4375 C7.71958984 0.59025391 7.71958984 0.59025391 9.41015625 0.74609375 C10.26480469 0.82988281 11.11945313 0.91367187 12 1 C11.34 1.66 10.68 2.32 10 3 C7.66666667 3 5.33333333 3 3 3 C2.34 3.66 1.68 4.32 1 5 C-0.32 5 -1.64 5 -3 5 C-1.125 1.125 -1.125 1.125 0 0 Z " fill="#3CA6F1" transform="translate(70,16)"/>
<path d="M0 0 C0.66 0.33 1.32 0.66 2 1 C2 1.66 2 2.32 2 3 C1.34 3 0.68 3 0 3 C0.24126997 8.73866286 0.24126997 8.73866286 3.0625 13.5 C3.701875 13.995 4.34125 14.49 5 15 C-0.54545455 13.55335968 -0.54545455 13.55335968 -2.4375 11.25 C-3.19934824 8.20260706 -2.77248994 6.02558562 -2 3 C-1.34 2.01 -0.68 1.02 0 0 Z " fill="#010A11" transform="translate(35,121)"/>
<path d="M0 0 C0.66 0 1.32 0 2 0 C5 3.46153846 5 3.46153846 5 6 C5.66 6 6.32 6 7 6 C9.125 7.875 9.125 7.875 11 10 C11 10.66 11 11.32 11 12 C11.66 12 12.32 12 13 12 C13 12.99 13 13.98 13 15 C9.19652252 13.48715615 7.31065348 11.25432462 4.8125 8.0625 C4.11769531 7.18722656 3.42289063 6.31195313 2.70703125 5.41015625 C1 3 1 3 0 0 Z " fill="#3A89DB" transform="translate(17,97)"/>
<path d="M0 0 C3.375 4.5 3.375 4.5 3.1875 8.75 C3.16042969 9.54921875 3.13335937 10.3484375 3.10546875 11.171875 C3.07066406 11.77515625 3.03585938 12.3784375 3 13 C1.68 13.33 0.36 13.66 -1 14 C-0.67 9.38 -0.34 4.76 0 0 Z " fill="#E9F1F8" transform="translate(105,65)"/>
<path d="M0 0 C-3.465 1.485 -3.465 1.485 -7 3 C-6.896875 3.7425 -6.79375 4.485 -6.6875 5.25 C-7 8 -7 8 -9.5 10.3125 C-10.7375 11.1478125 -10.7375 11.1478125 -12 12 C-11.67 10.35 -11.34 8.7 -11 7 C-10.34 7 -9.68 7 -9 7 C-9.33 5.02 -9.66 3.04 -10 1 C-3.71428571 -1.42857143 -3.71428571 -1.42857143 0 0 Z " fill="#A8E4FD" transform="translate(66,15)"/>
<path d="M0 0 C7.92 0 15.84 0 24 0 C24 0.99 24 1.98 24 3 C24.66 3.33 25.32 3.66 26 4 C23.03 3.505 23.03 3.505 20 3 C20 2.67 20 2.34 20 2 C13.4 1.67 6.8 1.34 0 1 C0 0.67 0 0.34 0 0 Z " fill="#025DBA" transform="translate(56,129)"/>
<path d="M0 0 C1.32 0.33 2.64 0.66 4 1 C0.87378374 4.39417765 -1.56541027 6.6062718 -6 8 C-6 7.01 -6 6.02 -6 5 C-4.36368108 3.95107762 -2.69514137 2.95093297 -1 2 C-0.67 1.34 -0.34 0.68 0 0 Z " fill="#1BB9F7" transform="translate(103,113)"/>
<path d="M0 0 C0.66 0.99 1.32 1.98 2 3 C-3.96583144 14.89066059 -3.96583144 14.89066059 -9 18 C-7.59313702 13.90730771 -5.49604131 10.55135637 -3.17578125 6.9375 C-1.82573504 4.71283914 -0.84537153 2.45926264 0 0 Z " fill="#75C7EF" transform="translate(120,91)"/>
<path d="M0 0 C0.91007812 0.00902344 1.82015625 0.01804687 2.7578125 0.02734375 C3.45648438 0.03894531 4.15515625 0.05054687 4.875 0.0625 C4.545 1.0525 4.215 2.0425 3.875 3.0625 C0.245 3.0625 -3.385 3.0625 -7.125 3.0625 C-7.125 2.4025 -7.125 1.7425 -7.125 1.0625 C-4.60024538 -0.19987731 -2.81299534 -0.03606404 0 0 Z " fill="#60D4FB" transform="translate(92.125,126.9375)"/>
<path d="M0 0 C2.49361571 1.20381448 4.68143083 2.45428722 7 4 C7 4.66 7 5.32 7 6 C7.598125 6.103125 8.19625 6.20625 8.8125 6.3125 C11.28243264 7.08876455 12.32251235 8.07088921 14 10 C9.8333396 9.52651586 7.07115285 8.95303159 4 6 C4 5.34 4 4.68 4 4 C3.34 4 2.68 4 2 4 C2 3.34 2 2.68 2 2 C1.34 2 0.68 2 0 2 C0 1.34 0 0.68 0 0 Z " fill="#1261C1" transform="translate(32,109)"/>
<path d="M0 0 C-0.99 0.33 -1.98 0.66 -3 1 C-3.73323796 3.01508358 -3.73323796 3.01508358 -4 5 C-3.34 5.33 -2.68 5.66 -2 6 C-2.99 6.33 -3.98 6.66 -5 7 C-5 6.34 -5 5.68 -5 5 C-5.639375 4.896875 -6.27875 4.79375 -6.9375 4.6875 C-7.618125 4.460625 -8.29875 4.23375 -9 4 C-9.33 3.01 -9.66 2.02 -10 1 C-8.71073008 0.63720544 -7.41846728 0.28503302 -6.125 -0.0625 C-5.40570313 -0.25972656 -4.68640625 -0.45695312 -3.9453125 -0.66015625 C-2 -1 -2 -1 0 0 Z " fill="#022A82" transform="translate(79,93)"/>
<path d="M0 0 C0.33 0 0.66 0 1 0 C1.3689719 7.31110994 0.81552726 13.21256822 -2 20 C-2.99 20 -3.98 20 -5 20 C-4.67 18.35 -4.34 16.7 -4 15 C-3.34 15 -2.68 15 -2 15 C-1.34 10.05 -0.68 5.1 0 0 Z " fill="#0752B7" transform="translate(119,68)"/>
<path d="M0 0 C0.33 0 0.66 0 1 0 C1.06058594 0.90363281 1.12117188 1.80726562 1.18359375 2.73828125 C1.26738281 3.91777344 1.35117188 5.09726563 1.4375 6.3125 C1.55931641 8.07013672 1.55931641 8.07013672 1.68359375 9.86328125 C1.8867371 13.02590958 1.8867371 13.02590958 3 16 C1.5625 19.1875 1.5625 19.1875 0 22 C-0.33 22 -0.66 22 -1 22 C-0.67 14.74 -0.34 7.48 0 0 Z " fill="#244587" transform="translate(111,59)"/>
<path d="M0 0 C4.97116744 3.8121593 8.39531377 7.24798457 11 13 C10.67 13.99 10.34 14.98 10 16 C9.01 14.02 8.02 12.04 7 10 C6.34 10 5.68 10 5 10 C3.7109375 8.3203125 3.7109375 8.3203125 2.375 6.125 C1.92898437 5.40570313 1.48296875 4.68640625 1.0234375 3.9453125 C0 2 0 2 0 0 Z " fill="#335E8B" transform="translate(113,33)"/>
<path d="M0 0 C-0.66 0 -1.32 0 -2 0 C-2.309375 0.639375 -2.61875 1.27875 -2.9375 1.9375 C-4 4 -4 4 -5 5 C-7.33297433 5.04092937 -9.66705225 5.04241723 -12 5 C-8.44416617 1.04907352 -5.38741645 -1.79580548 0 0 Z " fill="#A0D9FA" transform="translate(47,35)"/>
<path d="M0 0 C3.37462715 0.54723683 5.08235 1.0549 8 3 C8.1875 6.125 8.1875 6.125 8 9 C6.35 9.66 4.7 10.32 3 11 C3 10.34 3 9.68 3 9 C3.99 9 4.98 9 6 9 C5.88658466 6.59122743 5.88658466 6.59122743 5 4 C2.52066803 2.22851628 2.52066803 2.22851628 0 1 C0 0.67 0 0.34 0 0 Z " fill="#0C2A42" transform="translate(102,123)"/>
<path d="M0 0 C0.66 0.66 1.32 1.32 2 2 C4.58354218 2.16687448 4.58354218 2.16687448 7 2 C6.01 3.485 6.01 3.485 5 5 C-0.28 4.01 -5.56 3.02 -11 2 C-11 1.67 -11 1.34 -11 1 C-9.5437328 0.63743142 -8.08488815 0.28520207 -6.625 -0.0625 C-5.40683594 -0.35833984 -5.40683594 -0.35833984 -4.1640625 -0.66015625 C-2 -1 -2 -1 0 0 Z " fill="#308CDF" transform="translate(47,46)"/>
<path d="M0 0 C0.99 0.33 1.98 0.66 3 1 C0.13463296 5.07763771 -2.43041625 7.02677065 -7 9 C-5.66087415 4.61740632 -3.87774964 2.45906075 0 0 Z " fill="#7FC8F9" transform="translate(29,35)"/>
<path d="M0 0 C1.67542976 0.28604898 3.34385343 0.61781233 5 1 C4.67 2.65 4.34 4.3 4 6 C2.68 5.67 1.36 5.34 0 5 C-0.5625 3.0625 -0.5625 3.0625 -1 1 C-0.67 0.67 -0.34 0.34 0 0 Z " fill="#5975B7" transform="translate(110,87)"/>
<path d="M0 0 C1.98 0.99 1.98 0.99 4 2 C3.835 2.763125 3.67 3.52625 3.5 4.3125 C2.90854604 7.03596236 2.90854604 7.03596236 3 10 C3.66 10.33 4.32 10.66 5 11 C3.35 10.67 1.7 10.34 0 10 C0 6.7 0 3.4 0 0 Z " fill="#00328F" transform="translate(38,76)"/>
<path d="M0 0 C1.32 0 2.64 0 4 0 C3.125 4.875 3.125 4.875 2 6 C-0.33297433 6.04092937 -2.66705225 6.04241723 -5 6 C-1.25 3 -1.25 3 1 3 C0.67 2.01 0.34 1.02 0 0 Z " fill="#1564A4" transform="translate(101,127)"/>
<path d="M0 0 C0 3.96018245 -1.18721244 6.5039097 -3 10 C-5.1875 10.9375 -5.1875 10.9375 -7 11 C-7 10.01 -7 9.02 -7 8 C-6.34 7.67 -5.68 7.34 -5 7 C-3.98133771 5.34467377 -2.98189187 3.67739862 -2 2 C-1.34 1.34 -0.68 0.68 0 0 Z " fill="#10B4FC" transform="translate(86,115)"/>
<path d="M0 0 C0.99 0.33 1.98 0.66 3 1 C-1.48074195 4.36055646 -4.60550707 4.27429625 -10 4 C-10.33 3.34 -10.66 2.68 -11 2 C-10.06027344 1.90912109 -10.06027344 1.90912109 -9.1015625 1.81640625 C-7.87566406 1.69072266 -7.87566406 1.69072266 -6.625 1.5625 C-5.81289062 1.48128906 -5.00078125 1.40007812 -4.1640625 1.31640625 C-1.95727195 1.10909886 -1.95727195 1.10909886 0 0 Z " fill="#002A85" transform="translate(100,94)"/>
<path d="M0 0 C3.25524265 3.02272532 5.61820737 6.25718301 8 10 C7.34 10.66 6.68 11.32 6 12 C4.99157547 10.56839732 3.99352109 9.12948547 3 7.6875 C2.1646875 6.48673828 2.1646875 6.48673828 1.3125 5.26171875 C0 3 0 3 0 0 Z " fill="#5FA7E7" transform="translate(16,97)"/>
<path d="M0 0 C0.33 0.66 0.66 1.32 1 2 C3.02463255 2.65213292 3.02463255 2.65213292 5 3 C2.60490662 5.89932357 0.68754757 6.50168276 -3 7 C-1.125 2.25 -1.125 2.25 0 0 Z " fill="#B1DFFB" transform="translate(31,36)"/>
<path d="M0 0 C1.32 0 2.64 0 4 0 C4 0.99 4 1.98 4 3 C0.77208445 5.1519437 -0.28400809 5.20086443 -4 5 C-2.25 2.5 -2.25 2.5 0 0 Z " fill="#B9FAFD" transform="translate(94,114)"/>
<path d="M0 0 C0.99 0.33 1.98 0.66 3 1 C3.25 8.625 3.25 8.625 1 12 C-0.26237731 9.47524538 -0.09856404 7.68799534 -0.0625 4.875 C-0.05347656 3.96492188 -0.04445313 3.05484375 -0.03515625 2.1171875 C-0.02355469 1.41851562 -0.01195312 0.71984375 0 0 Z " fill="#69ACEA" transform="translate(14,58)"/>
<path d="M0 0 C0.33 0.99 0.66 1.98 1 3 C-0.98 3 -2.96 3 -5 3 C-5.66 5.97 -6.32 8.94 -7 12 C-7.33 12 -7.66 12 -8 12 C-8 8.7 -8 5.4 -8 2 C-5.36 2 -2.72 2 0 2 C0 1.34 0 0.68 0 0 Z " fill="#0644A0" transform="translate(46,56)"/>
<path d="M0 0 C5.63470383 -0.5497272 8.38987758 1.04952165 13 4 C13 4.66 13 5.32 13 6 C8.52761347 4.58192622 4.28853694 2.88695626 0 1 C0 0.67 0 0.34 0 0 Z " fill="#3190E5" transform="translate(83,18)"/>
<path d="M0 0 C0 3 0 3 -1.53125 4.60546875 C-2.1809375 5.12753906 -2.830625 5.64960937 -3.5 6.1875 C-4.1496875 6.71730469 -4.799375 7.24710937 -5.46875 7.79296875 C-5.9740625 8.19128906 -6.479375 8.58960937 -7 9 C-7.66 8.67 -8.32 8.34 -9 8 C-6.03 5.36 -3.06 2.72 0 0 Z " fill="#011A51" transform="translate(114,108)"/>
<path d="M0 0 C0 3 0 3 -1.625 5.625 C-4.43693229 8.43693229 -6.10240081 8.7342546 -10 9 C-6.85281112 5.7317654 -3.50647501 2.8689341 0 0 Z " fill="#E0F5FC" transform="translate(46,27)"/>
<path d="M0 0 C0.99 0.33 1.98 0.66 3 1 C3 1.99 3 2.98 3 4 C-1.29 4 -5.58 4 -10 4 C-10 3.67 -10 3.34 -10 3 C-9.36191406 2.95101562 -8.72382812 2.90203125 -8.06640625 2.8515625 C-7.24011719 2.77679688 -6.41382812 2.70203125 -5.5625 2.625 C-4.73878906 2.55539063 -3.91507812 2.48578125 -3.06640625 2.4140625 C-2.38449219 2.27742187 -1.70257813 2.14078125 -1 2 C-0.67 1.34 -0.34 0.68 0 0 Z " fill="#29A9F0" transform="translate(97,127)"/>
<path d="M0 0 C1.2065625 0.0309375 1.2065625 0.0309375 2.4375 0.0625 C2.4375 3.0625 2.4375 3.0625 0.4375 5.25 C-0.2225 5.848125 -0.8825 6.44625 -1.5625 7.0625 C-2.2225 6.7325 -2.8825 6.4025 -3.5625 6.0625 C-2.9025 4.7425 -2.2425 3.4225 -1.5625 2.0625 C-2.2225 1.7325 -2.8825 1.4025 -3.5625 1.0625 C-2.5625 0.0625 -2.5625 0.0625 0 0 Z " fill="#4AD6FD" transform="translate(103.5625,108.9375)"/>
<path d="M0 0 C0 2.31 0 4.62 0 7 C-0.66 5.68 -1.32 4.36 -2 3 C-3.65 4.32 -5.3 5.64 -7 7 C-4.60526316 0 -4.60526316 0 0 0 Z " fill="#1C74CE" transform="translate(26,59)"/>
<path d="M0 0 C2.64 0.99 5.28 1.98 8 3 C8 3.99 8 4.98 8 6 C2.25 4.125 2.25 4.125 0 3 C0 2.01 0 1.02 0 0 Z " fill="#0D53B4" transform="translate(86,13)"/>
<path d="M0 0 C4 1.33333333 8 2.66666667 12 4 C12 4.33 12 4.66 12 5 C7.62065881 4.48041715 3.31196609 3.94324258 -1 3 C-0.67 2.01 -0.34 1.02 0 0 Z " fill="#003B95" transform="translate(74,130)"/>
<path d="M0 0 C0.66 0.33 1.32 0.66 2 1 C1.01 1.61875 0.02 2.2375 -1 2.875 C-1.99 3.57625 -2.98 4.2775 -4 5 C-4 5.66 -4 6.32 -4 7 C-5.32 7.33 -6.64 7.66 -8 8 C-7.9375 6.25 -7.9375 6.25 -7 4 C-4.74876994 2.27481113 -2.59865097 1.23093993 0 0 Z " fill="#0062CA" transform="translate(94,104)"/>
<path d="M0 0 C1.32 0.66 2.64 1.32 4 2 C3.34 3.32 2.68 4.64 2 6 C0.68 5.34 -0.64 4.68 -2 4 C-1.34 2.68 -0.68 1.36 0 0 Z " fill="#107EDF" transform="translate(117,89)"/>
<path d="M0 0 C0.66 0.33 1.32 0.66 2 1 C2.25 3.75 2.25 3.75 2 7 C0 9.375 0 9.375 -2 11 C-1.34 7.37 -0.68 3.74 0 0 Z " fill="#003894" transform="translate(58,59)"/>
<path d="M0 0 C-0.33 0.99 -0.66 1.98 -1 3 C-3.375 4.0625 -3.375 4.0625 -6 5 C-6.99 5.66 -7.98 6.32 -9 7 C-6.79922603 2.09058114 -5.62803596 0 0 0 Z " fill="#A0DAFB" transform="translate(34,32)"/>
<path d="M0 0 C5.35048061 0.37328935 7.50912907 1.9957657 11 6 C6.25 5.125 6.25 5.125 4 4 C4 3.34 4 2.68 4 2 C2.68 1.34 1.36 0.68 0 0 Z " fill="#4DA2EA" transform="translate(92,20)"/>
<path d="M0 0 C0.66 0.33 1.32 0.66 2 1 C1.01 2.485 1.01 2.485 0 4 C0.33 4.66 0.66 5.32 1 6 C-0.98 6 -2.96 6 -5 6 C-3.86695008 2.60085025 -2.87481525 1.94745549 0 0 Z " fill="#042D6D" transform="translate(103,117)"/>
<path d="M0 0 C0.66 0.33 1.32 0.66 2 1 C0.515 2.485 0.515 2.485 -1 4 C-0.34 4.66 0.32 5.32 1 6 C-0.98 6.33 -2.96 6.66 -5 7 C-3.70700306 4.11562221 -2.34058637 2.12780579 0 0 Z " fill="#88F2FD" transform="translate(92,114)"/>
<path d="M0 0 C0.8353125 0.37125 0.8353125 0.37125 1.6875 0.75 C-0.5625 2.8125 -0.5625 2.8125 -3.3125 4.75 C-5.625 4.5 -5.625 4.5 -7.3125 3.75 C-2.88173077 -0.31153846 -2.88173077 -0.31153846 0 0 Z " fill="#0077DD" transform="translate(100.3125,104.25)"/>
<path d="M0 0 C2.91517292 1.07401108 4.77810176 1.77810176 7 4 C7.625 6.125 7.625 6.125 8 8 C4.97009905 6.28032649 2.23672704 4.70761694 0 2 C0 1.34 0 0.68 0 0 Z " fill="#074EB0" transform="translate(29,104)"/>
<path d="M0 0 C0.66 0 1.32 0 2 0 C2.33 0.99 2.66 1.98 3 3 C1.68 4.32 0.36 5.64 -1 7 C-1.66 6.34 -2.32 5.68 -3 5 C-1.625 2.5 -1.625 2.5 0 0 Z " fill="#DBE6F3" transform="translate(82,78)"/>
<path d="M0 0 C4.51478398 0.53115106 7.34666857 2.36620292 11 5 C8.3333581 6.33332095 6.83319697 5.67102033 4 5 C4 4.01 4 3.02 4 2 C2.68 1.34 1.36 0.68 0 0 Z " fill="#001A48" transform="translate(90,14)"/>
<path d="M0 0 C3 1 3 1 4.6875 4.0625 C5.120625 5.031875 5.55375 6.00125 6 7 C4.125 6.875 4.125 6.875 2 6 C0.75 2.9375 0.75 2.9375 0 0 Z " fill="#032852" transform="translate(40,124)"/>
<path d="M0 0 C2.74277578 3.19990508 4.6302836 6.00499382 6 10 C3.54896452 9.01958581 2.23241214 8.3486182 0.75 6.125 C0 4 0 4 0 0 Z " fill="#061F3D" transform="translate(13,95)"/>
<path d="M0 0 C1.14926266 0.95421808 2.29430541 1.91352045 3.4375 2.875 C4.07558594 3.40867187 4.71367187 3.94234375 5.37109375 4.4921875 C7 6 7 6 8 8 C4.11137013 6.73882275 2.10624401 5.54735833 0 2 C0 1.34 0 0.68 0 0 Z " fill="#357FD3" transform="translate(24,96)"/>
<path d="M0 0 C2.15546298 3.23319447 2.68074747 5.16896958 3 9 C2.34 9.99 1.68 10.98 1 12 C0.67 8.04 0.34 4.08 0 0 Z " fill="#0B398E" transform="translate(89,51)"/>
<path d="M0 0 C0.66 0 1.32 0 2 0 C1.01 2.97 0.02 5.94 -1 9 C-1.66 7.68 -2.32 6.36 -3 5 C-1.75 2.25 -1.75 2.25 0 0 Z " fill="#1E79D7" transform="translate(19,40)"/>
<path d="M0 0 C1.98 0.66 3.96 1.32 6 2 C6 2.66 6 3.32 6 4 C6.66 4.33 7.32 4.66 8 5 C2.25 4.25 2.25 4.25 0 2 C0 1.34 0 0.68 0 0 Z " fill="#1B61BF" transform="translate(37,106)"/>
<path d="M0 0 C2.97 0 5.94 0 9 0 C9 0.99 9 1.98 9 3 C7.906875 2.814375 6.81375 2.62875 5.6875 2.4375 C2.06375867 1.7421932 2.06375867 1.7421932 -1 3 C-0.67 2.01 -0.34 1.02 0 0 Z " fill="#194295" transform="translate(99,48)"/>
<path d="M0 0 C1.98 0.66 3.96 1.32 6 2 C6 2.99 6 3.98 6 5 C4.68 4.67 3.36 4.34 2 4 C2 3.34 2 2.68 2 2 C1.01 1.67 0.02 1.34 -1 1 C-0.67 0.67 -0.34 0.34 0 0 Z " fill="#0B4A81" transform="translate(97,122)"/>
<path d="M0 0 C0.99 0 1.98 0 3 0 C3 0.66 3 1.32 3 2 C5.475 2.99 5.475 2.99 8 4 C6.25 4.75 6.25 4.75 4 5 C1.75 3.125 1.75 3.125 0 1 C0 0.67 0 0.34 0 0 Z " fill="#248CE2" transform="translate(44,119)"/>
<path d="M0 0 C-2 2 -2 2 -5.625 2.125 C-6.73875 2.08375 -7.8525 2.0425 -9 2 C-5.945634 -1.054366 -3.9532319 -1.22686507 0 0 Z " fill="#2CBFFD" transform="translate(101,110)"/>
<path d="M0 0 C0.66 0.33 1.32 0.66 2 1 C1.34 2.32 0.68 3.64 0 5 C-1.65 4.67 -3.3 4.34 -5 4 C-3.35 2.68 -1.7 1.36 0 0 Z " fill="#21B8FD" transform="translate(111,103)"/>
<path d="M0 0 C0.99 0.33 1.98 0.66 3 1 C2.67 1.99 2.34 2.98 2 4 C0.02 4.33 -1.96 4.66 -4 5 C-2.68 3.35 -1.36 1.7 0 0 Z " fill="#0E96F0" transform="translate(114,97)"/>
<path d="M0 0 C0.33 0.66 0.66 1.32 1 2 C-3.75 6.875 -3.75 6.875 -6 8 C-5.65120368 4.74456771 -4.97866739 3.98126893 -2.4375 1.75 C-1.633125 1.1725 -0.82875 0.595 0 0 Z " fill="#003DA3" transform="translate(108,92)"/>
<path d="M0 0 C0.99 0.495 0.99 0.495 2 1 C2 1.66 2 2.32 2 3 C1.34 3 0.68 3 0 3 C0 2.01 0 1.02 0 0 Z " fill="#000000" transform="translate(124,128)"/>
</svg>
